<?xml version="1.0" encoding="utf-8" standalone="no"?>
<!DOCTYPE svg PUBLIC "-//W3C//DTD SVG 1.1//EN"
  "http://www.w3.org/Graphics/SVG/1.1/DTD/svg11.dtd">
<!-- Created with matplotlib (https://matplotlib.org/) -->
<svg height="288pt" version="1.1" viewBox="0 0 432 288" width="432pt" xmlns="http://www.w3.org/2000/svg" xmlns:xlink="http://www.w3.org/1999/xlink">
 <defs>
  <style type="text/css">
*{stroke-linecap:butt;stroke-linejoin:round;}
  </style>
 </defs>
 <g id="figure_1">
  <g id="patch_1">
   <path d="M 0 288 
L 432 288 
L 432 0 
L 0 0 
z
" style="fill:#ffffff;"/>
  </g>
  <g id="axes_1">
   <g id="patch_2">
    <path d="M 54 252 
L 388.8 252 
L 388.8 34.56 
L 54 34.56 
z
" style="fill:#ffffff;"/>
   </g>
   <g id="PathCollection_1">
    <defs>
     <path d="M 0 3.383948 
C 0.897434 3.383948 1.758231 3.027394 2.392813 2.392813 
C 3.027394 1.758231 3.383948 0.897434 3.383948 0 
C 3.383948 -0.897434 3.027394 -1.758231 2.392813 -2.392813 
C 1.758231 -3.027394 0.897434 -3.383948 0 -3.383948 
C -0.897434 -3.383948 -1.758231 -3.027394 -2.392813 -2.392813 
C -3.027394 -1.758231 -3.383948 -0.897434 -3.383948 0 
C -3.383948 0.897434 -3.027394 1.758231 -2.392813 2.392813 
C -1.758231 3.027394 -0.897434 3.383948 0 3.383948 
z
" id="C0_0_931ba9486b"/>
    </defs>
    <g clip-path="url(#pe48b36a1c0)">
     <use style="fill:#a6cee3;stroke:#a6cee3;stroke-width:2.025;" x="60.82" xlink:href="#C0_0_931ba9486b" y="101.547742"/>
    </g>
    <g clip-path="url(#pe48b36a1c0)">
     <use style="fill:#a6cee3;stroke:#a6cee3;stroke-width:2.025;" x="122.82" xlink:href="#C0_0_931ba9486b" y="187.710614"/>
    </g>
    <g clip-path="url(#pe48b36a1c0)">
     <use style="fill:#a6cee3;stroke:#a6cee3;stroke-width:2.025;" x="184.82" xlink:href="#C0_0_931ba9486b" y="211.914577"/>
    </g>
    <g clip-path="url(#pe48b36a1c0)">
     <use style="fill:#a6cee3;stroke:#a6cee3;stroke-width:2.025;" x="246.82" xlink:href="#C0_0_931ba9486b" y="213.075395"/>
    </g>
    <g clip-path="url(#pe48b36a1c0)">
     <use style="fill:#a6cee3;stroke:#a6cee3;stroke-width:2.025;" x="308.82" xlink:href="#C0_0_931ba9486b" y="208.836244"/>
    </g>
    <g clip-path="url(#pe48b36a1c0)">
     <use style="fill:#a6cee3;stroke:#a6cee3;stroke-width:2.025;" x="370.82" xlink:href="#C0_0_931ba9486b" y="182.261914"/>
    </g>
   </g>
   <g id="line2d_1">
    <path clip-path="url(#pe48b36a1c0)" d="M 60.82 101.547742 
L 122.82 187.710614 
L 184.82 211.914577 
L 246.82 213.075395 
L 308.82 208.836244 
L 370.82 182.261914 
" style="fill:none;stroke:#a6cee3;stroke-linecap:square;stroke-width:2.7;"/>
   </g>
   <g id="line2d_2">
    <path clip-path="url(#pe48b36a1c0)" d="M 60.82 116.001295 
L 60.82 88.24542 
" style="fill:none;stroke:#a6cee3;stroke-linecap:square;stroke-width:2.7;"/>
   </g>
   <g id="line2d_3">
    <path clip-path="url(#pe48b36a1c0)" d="M 122.82 202.595143 
L 122.82 173.054219 
" style="fill:none;stroke:#a6cee3;stroke-linecap:square;stroke-width:2.7;"/>
   </g>
   <g id="line2d_4">
    <path clip-path="url(#pe48b36a1c0)" d="M 184.82 225.90665 
L 184.82 197.400352 
" style="fill:none;stroke:#a6cee3;stroke-linecap:square;stroke-width:2.7;"/>
   </g>
   <g id="line2d_5">
    <path clip-path="url(#pe48b36a1c0)" d="M 246.82 224.571705 
L 246.82 201.271947 
" style="fill:none;stroke:#a6cee3;stroke-linecap:square;stroke-width:2.7;"/>
   </g>
   <g id="line2d_6">
    <path clip-path="url(#pe48b36a1c0)" d="M 308.82 221.843407 
L 308.82 193.689515 
" style="fill:none;stroke:#a6cee3;stroke-linecap:square;stroke-width:2.7;"/>
   </g>
   <g id="line2d_7">
    <path clip-path="url(#pe48b36a1c0)" d="M 370.82 195.323274 
L 370.82 169.302976 
" style="fill:none;stroke:#a6cee3;stroke-linecap:square;stroke-width:2.7;"/>
   </g>
   <g id="matplotlib.axis_1">
    <g id="xtick_1">
     <g id="line2d_8">
      <defs>
       <path d="M 0 0 
L 0 3.5 
" id="m4df543c140" style="stroke:#000000;stroke-width:0.8;"/>
      </defs>
      <g>
       <use style="stroke:#000000;stroke-width:0.8;" x="66.4" xlink:href="#m4df543c140" y="252"/>
      </g>
     </g>
     <g id="text_1">
      <!-- 1 -->
      <defs>
       <path d="M 12.40625 8.296875 
L 28.515625 8.296875 
L 28.515625 63.921875 
L 10.984375 60.40625 
L 10.984375 69.390625 
L 28.421875 72.90625 
L 38.28125 72.90625 
L 38.28125 8.296875 
L 54.390625 8.296875 
L 54.390625 0 
L 12.40625 0 
z
" id="DejaVuSans-49"/>
      </defs>
      <g transform="translate(61.94625 269.637812)scale(0.14 -0.14)">
       <use xlink:href="#DejaVuSans-49"/>
      </g>
     </g>
    </g>
    <g id="xtick_2">
     <g id="line2d_9">
      <g>
       <use style="stroke:#000000;stroke-width:0.8;" x="128.4" xlink:href="#m4df543c140" y="252"/>
      </g>
     </g>
     <g id="text_2">
      <!-- 2 -->
      <defs>
       <path d="M 19.1875 8.296875 
L 53.609375 8.296875 
L 53.609375 0 
L 7.328125 0 
L 7.328125 8.296875 
Q 12.9375 14.109375 22.625 23.890625 
Q 32.328125 33.6875 34.8125 36.53125 
Q 39.546875 41.84375 41.421875 45.53125 
Q 43.3125 49.21875 43.3125 52.78125 
Q 43.3125 58.59375 39.234375 62.25 
Q 35.15625 65.921875 28.609375 65.921875 
Q 23.96875 65.921875 18.8125 64.3125 
Q 13.671875 62.703125 7.8125 59.421875 
L 7.8125 69.390625 
Q 13.765625 71.78125 18.9375 73 
Q 24.125 74.21875 28.421875 74.21875 
Q 39.75 74.21875 46.484375 68.546875 
Q 53.21875 62.890625 53.21875 53.421875 
Q 53.21875 48.921875 51.53125 44.890625 
Q 49.859375 40.875 45.40625 35.40625 
Q 44.1875 33.984375 37.640625 27.21875 
Q 31.109375 20.453125 19.1875 8.296875 
z
" id="DejaVuSans-50"/>
      </defs>
      <g transform="translate(123.94625 269.637812)scale(0.14 -0.14)">
       <use xlink:href="#DejaVuSans-50"/>
      </g>
     </g>
    </g>
    <g id="xtick_3">
     <g id="line2d_10">
      <g>
       <use style="stroke:#000000;stroke-width:0.8;" x="190.4" xlink:href="#m4df543c140" y="252"/>
      </g>
     </g>
     <g id="text_3">
      <!-- 3 -->
      <defs>
       <path d="M 40.578125 39.3125 
Q 47.65625 37.796875 51.625 33 
Q 55.609375 28.21875 55.609375 21.1875 
Q 55.609375 10.40625 48.1875 4.484375 
Q 40.765625 -1.421875 27.09375 -1.421875 
Q 22.515625 -1.421875 17.65625 -0.515625 
Q 12.796875 0.390625 7.625 2.203125 
L 7.625 11.71875 
Q 11.71875 9.328125 16.59375 8.109375 
Q 21.484375 6.890625 26.8125 6.890625 
Q 36.078125 6.890625 40.9375 10.546875 
Q 45.796875 14.203125 45.796875 21.1875 
Q 45.796875 27.640625 41.28125 31.265625 
Q 36.765625 34.90625 28.71875 34.90625 
L 20.21875 34.90625 
L 20.21875 43.015625 
L 29.109375 43.015625 
Q 36.375 43.015625 40.234375 45.921875 
Q 44.09375 48.828125 44.09375 54.296875 
Q 44.09375 59.90625 40.109375 62.90625 
Q 36.140625 65.921875 28.71875 65.921875 
Q 24.65625 65.921875 20.015625 65.03125 
Q 15.375 64.15625 9.8125 62.3125 
L 9.8125 71.09375 
Q 15.4375 72.65625 20.34375 73.4375 
Q 25.25 74.21875 29.59375 74.21875 
Q 40.828125 74.21875 47.359375 69.109375 
Q 53.90625 64.015625 53.90625 55.328125 
Q 53.90625 49.265625 50.4375 45.09375 
Q 46.96875 40.921875 40.578125 39.3125 
z
" id="DejaVuSans-51"/>
      </defs>
      <g transform="translate(185.94625 269.637812)scale(0.14 -0.14)">
       <use xlink:href="#DejaVuSans-51"/>
      </g>
     </g>
    </g>
    <g id="xtick_4">
     <g id="line2d_11">
      <g>
       <use style="stroke:#000000;stroke-width:0.8;" x="252.4" xlink:href="#m4df543c140" y="252"/>
      </g>
     </g>
     <g id="text_4">
      <!-- 4 -->
      <defs>
       <path d="M 37.796875 64.3125 
L 12.890625 25.390625 
L 37.796875 25.390625 
z
M 35.203125 72.90625 
L 47.609375 72.90625 
L 47.609375 25.390625 
L 58.015625 25.390625 
L 58.015625 17.1875 
L 47.609375 17.1875 
L 47.609375 0 
L 37.796875 0 
L 37.796875 17.1875 
L 4.890625 17.1875 
L 4.890625 26.703125 
z
" id="DejaVuSans-52"/>
      </defs>
      <g transform="translate(247.94625 269.637812)scale(0.14 -0.14)">
       <use xlink:href="#DejaVuSans-52"/>
      </g>
     </g>
    </g>
    <g id="xtick_5">
     <g id="line2d_12">
      <g>
       <use style="stroke:#000000;stroke-width:0.8;" x="314.4" xlink:href="#m4df543c140" y="252"/>
      </g>
     </g>
     <g id="text_5">
      <!-- 5 -->
      <defs>
       <path d="M 10.796875 72.90625 
L 49.515625 72.90625 
L 49.515625 64.59375 
L 19.828125 64.59375 
L 19.828125 46.734375 
Q 21.96875 47.46875 24.109375 47.828125 
Q 26.265625 48.1875 28.421875 48.1875 
Q 40.625 48.1875 47.75 41.5 
Q 54.890625 34.8125 54.890625 23.390625 
Q 54.890625 11.625 47.5625 5.09375 
Q 40.234375 -1.421875 26.90625 -1.421875 
Q 22.3125 -1.421875 17.546875 -0.640625 
Q 12.796875 0.140625 7.71875 1.703125 
L 7.71875 11.625 
Q 12.109375 9.234375 16.796875 8.0625 
Q 21.484375 6.890625 26.703125 6.890625 
Q 35.15625 6.890625 40.078125 11.328125 
Q 45.015625 15.765625 45.015625 23.390625 
Q 45.015625 31 40.078125 35.4375 
Q 35.15625 39.890625 26.703125 39.890625 
Q 22.75 39.890625 18.8125 39.015625 
Q 14.890625 38.140625 10.796875 36.28125 
z
" id="DejaVuSans-53"/>
      </defs>
      <g transform="translate(309.94625 269.637812)scale(0.14 -0.14)">
       <use xlink:href="#DejaVuSans-53"/>
      </g>
     </g>
    </g>
    <g id="xtick_6">
     <g id="line2d_13">
      <g>
       <use style="stroke:#000000;stroke-width:0.8;" x="376.4" xlink:href="#m4df543c140" y="252"/>
      </g>
     </g>
     <g id="text_6">
      <!-- 6 -->
      <defs>
       <path d="M 33.015625 40.375 
Q 26.375 40.375 22.484375 35.828125 
Q 18.609375 31.296875 18.609375 23.390625 
Q 18.609375 15.53125 22.484375 10.953125 
Q 26.375 6.390625 33.015625 6.390625 
Q 39.65625 6.390625 43.53125 10.953125 
Q 47.40625 15.53125 47.40625 23.390625 
Q 47.40625 31.296875 43.53125 35.828125 
Q 39.65625 40.375 33.015625 40.375 
z
M 52.59375 71.296875 
L 52.59375 62.3125 
Q 48.875 64.0625 45.09375 64.984375 
Q 41.3125 65.921875 37.59375 65.921875 
Q 27.828125 65.921875 22.671875 59.328125 
Q 17.53125 52.734375 16.796875 39.40625 
Q 19.671875 43.65625 24.015625 45.921875 
Q 28.375 48.1875 33.59375 48.1875 
Q 44.578125 48.1875 50.953125 41.515625 
Q 57.328125 34.859375 57.328125 23.390625 
Q 57.328125 12.15625 50.6875 5.359375 
Q 44.046875 -1.421875 33.015625 -1.421875 
Q 20.359375 -1.421875 13.671875 8.265625 
Q 6.984375 17.96875 6.984375 36.375 
Q 6.984375 53.65625 15.1875 63.9375 
Q 23.390625 74.21875 37.203125 74.21875 
Q 40.921875 74.21875 44.703125 73.484375 
Q 48.484375 72.75 52.59375 71.296875 
z
" id="DejaVuSans-54"/>
      </defs>
      <g transform="translate(371.94625 269.637812)scale(0.14 -0.14)">
       <use xlink:href="#DejaVuSans-54"/>
      </g>
     </g>
    </g>
   </g>
   <g id="matplotlib.axis_2">
    <g id="ytick_1">
     <g id="line2d_14">
      <defs>
       <path d="M 0 0 
L -3.5 0 
" id="mfa625276aa" style="stroke:#000000;stroke-width:0.8;"/>
      </defs>
      <g>
       <use style="stroke:#000000;stroke-width:0.8;" x="54" xlink:href="#mfa625276aa" y="252"/>
      </g>
     </g>
     <g id="text_7">
      <!-- −1 -->
      <defs>
       <path d="M 10.59375 35.5 
L 73.1875 35.5 
L 73.1875 27.203125 
L 10.59375 27.203125 
z
" id="DejaVuSans-8722"/>
      </defs>
      <g transform="translate(26.360937 257.318906)scale(0.14 -0.14)">
       <use xlink:href="#DejaVuSans-8722"/>
       <use x="83.789062" xlink:href="#DejaVuSans-49"/>
      </g>
     </g>
    </g>
    <g id="ytick_2">
     <g id="line2d_15">
      <g>
       <use style="stroke:#000000;stroke-width:0.8;" x="54" xlink:href="#mfa625276aa" y="179.52"/>
      </g>
     </g>
     <g id="text_8">
      <!-- 0 -->
      <defs>
       <path d="M 31.78125 66.40625 
Q 24.171875 66.40625 20.328125 58.90625 
Q 16.5 51.421875 16.5 36.375 
Q 16.5 21.390625 20.328125 13.890625 
Q 24.171875 6.390625 31.78125 6.390625 
Q 39.453125 6.390625 43.28125 13.890625 
Q 47.125 21.390625 47.125 36.375 
Q 47.125 51.421875 43.28125 58.90625 
Q 39.453125 66.40625 31.78125 66.40625 
z
M 31.78125 74.21875 
Q 44.046875 74.21875 50.515625 64.515625 
Q 56.984375 54.828125 56.984375 36.375 
Q 56.984375 17.96875 50.515625 8.265625 
Q 44.046875 -1.421875 31.78125 -1.421875 
Q 19.53125 -1.421875 13.0625 8.265625 
Q 6.59375 17.96875 6.59375 36.375 
Q 6.59375 54.828125 13.0625 64.515625 
Q 19.53125 74.21875 31.78125 74.21875 
z
" id="DejaVuSans-48"/>
      </defs>
      <g transform="translate(38.0925 184.838906)scale(0.14 -0.14)">
       <use xlink:href="#DejaVuSans-48"/>
      </g>
     </g>
    </g>
    <g id="ytick_3">
     <g id="line2d_16">
      <g>
       <use style="stroke:#000000;stroke-width:0.8;" x="54" xlink:href="#mfa625276aa" y="107.04"/>
      </g>
     </g>
     <g id="text_9">
      <!-- 1 -->
      <g transform="translate(38.0925 112.358906)scale(0.14 -0.14)">
       <use xlink:href="#DejaVuSans-49"/>
      </g>
     </g>
    </g>
    <g id="ytick_4">
     <g id="line2d_17">
      <g>
       <use style="stroke:#000000;stroke-width:0.8;" x="54" xlink:href="#mfa625276aa" y="34.56"/>
      </g>
     </g>
     <g id="text_10">
      <!-- 2 -->
      <g transform="translate(38.0925 39.878906)scale(0.14 -0.14)">
       <use xlink:href="#DejaVuSans-50"/>
      </g>
     </g>
    </g>
    <g id="text_11">
     <!-- DoVM Amp (deg) -->
     <defs>
      <path d="M 19.671875 64.796875 
L 19.671875 8.109375 
L 31.59375 8.109375 
Q 46.6875 8.109375 53.6875 14.9375 
Q 60.6875 21.78125 60.6875 36.53125 
Q 60.6875 51.171875 53.6875 57.984375 
Q 46.6875 64.796875 31.59375 64.796875 
z
M 9.8125 72.90625 
L 30.078125 72.90625 
Q 51.265625 72.90625 61.171875 64.09375 
Q 71.09375 55.28125 71.09375 36.53125 
Q 71.09375 17.671875 61.125 8.828125 
Q 51.171875 0 30.078125 0 
L 9.8125 0 
z
" id="DejaVuSans-68"/>
      <path d="M 30.609375 48.390625 
Q 23.390625 48.390625 19.1875 42.75 
Q 14.984375 37.109375 14.984375 27.296875 
Q 14.984375 17.484375 19.15625 11.84375 
Q 23.34375 6.203125 30.609375 6.203125 
Q 37.796875 6.203125 41.984375 11.859375 
Q 46.1875 17.53125 46.1875 27.296875 
Q 46.1875 37.015625 41.984375 42.703125 
Q 37.796875 48.390625 30.609375 48.390625 
z
M 30.609375 56 
Q 42.328125 56 49.015625 48.375 
Q 55.71875 40.765625 55.71875 27.296875 
Q 55.71875 13.875 49.015625 6.21875 
Q 42.328125 -1.421875 30.609375 -1.421875 
Q 18.84375 -1.421875 12.171875 6.21875 
Q 5.515625 13.875 5.515625 27.296875 
Q 5.515625 40.765625 12.171875 48.375 
Q 18.84375 56 30.609375 56 
z
" id="DejaVuSans-111"/>
      <path d="M 28.609375 0 
L 0.78125 72.90625 
L 11.078125 72.90625 
L 34.1875 11.53125 
L 57.328125 72.90625 
L 67.578125 72.90625 
L 39.796875 0 
z
" id="DejaVuSans-86"/>
      <path d="M 9.8125 72.90625 
L 24.515625 72.90625 
L 43.109375 23.296875 
L 61.8125 72.90625 
L 76.515625 72.90625 
L 76.515625 0 
L 66.890625 0 
L 66.890625 64.015625 
L 48.09375 14.015625 
L 38.1875 14.015625 
L 19.390625 64.015625 
L 19.390625 0 
L 9.8125 0 
z
" id="DejaVuSans-77"/>
      <path id="DejaVuSans-32"/>
      <path d="M 34.1875 63.1875 
L 20.796875 26.90625 
L 47.609375 26.90625 
z
M 28.609375 72.90625 
L 39.796875 72.90625 
L 67.578125 0 
L 57.328125 0 
L 50.6875 18.703125 
L 17.828125 18.703125 
L 11.1875 0 
L 0.78125 0 
z
" id="DejaVuSans-65"/>
      <path d="M 52 44.1875 
Q 55.375 50.25 60.0625 53.125 
Q 64.75 56 71.09375 56 
Q 79.640625 56 84.28125 50.015625 
Q 88.921875 44.046875 88.921875 33.015625 
L 88.921875 0 
L 79.890625 0 
L 79.890625 32.71875 
Q 79.890625 40.578125 77.09375 44.375 
Q 74.3125 48.1875 68.609375 48.1875 
Q 61.625 48.1875 57.5625 43.546875 
Q 53.515625 38.921875 53.515625 30.90625 
L 53.515625 0 
L 44.484375 0 
L 44.484375 32.71875 
Q 44.484375 40.625 41.703125 44.40625 
Q 38.921875 48.1875 33.109375 48.1875 
Q 26.21875 48.1875 22.15625 43.53125 
Q 18.109375 38.875 18.109375 30.90625 
L 18.109375 0 
L 9.078125 0 
L 9.078125 54.6875 
L 18.109375 54.6875 
L 18.109375 46.1875 
Q 21.1875 51.21875 25.484375 53.609375 
Q 29.78125 56 35.6875 56 
Q 41.65625 56 45.828125 52.96875 
Q 50 49.953125 52 44.1875 
z
" id="DejaVuSans-109"/>
      <path d="M 18.109375 8.203125 
L 18.109375 -20.796875 
L 9.078125 -20.796875 
L 9.078125 54.6875 
L 18.109375 54.6875 
L 18.109375 46.390625 
Q 20.953125 51.265625 25.265625 53.625 
Q 29.59375 56 35.59375 56 
Q 45.5625 56 51.78125 48.09375 
Q 58.015625 40.1875 58.015625 27.296875 
Q 58.015625 14.40625 51.78125 6.484375 
Q 45.5625 -1.421875 35.59375 -1.421875 
Q 29.59375 -1.421875 25.265625 0.953125 
Q 20.953125 3.328125 18.109375 8.203125 
z
M 48.6875 27.296875 
Q 48.6875 37.203125 44.609375 42.84375 
Q 40.53125 48.484375 33.40625 48.484375 
Q 26.265625 48.484375 22.1875 42.84375 
Q 18.109375 37.203125 18.109375 27.296875 
Q 18.109375 17.390625 22.1875 11.75 
Q 26.265625 6.109375 33.40625 6.109375 
Q 40.53125 6.109375 44.609375 11.75 
Q 48.6875 17.390625 48.6875 27.296875 
z
" id="DejaVuSans-112"/>
      <path d="M 31 75.875 
Q 24.46875 64.65625 21.28125 53.65625 
Q 18.109375 42.671875 18.109375 31.390625 
Q 18.109375 20.125 21.3125 9.0625 
Q 24.515625 -2 31 -13.1875 
L 23.1875 -13.1875 
Q 15.875 -1.703125 12.234375 9.375 
Q 8.59375 20.453125 8.59375 31.390625 
Q 8.59375 42.28125 12.203125 53.3125 
Q 15.828125 64.359375 23.1875 75.875 
z
" id="DejaVuSans-40"/>
      <path d="M 45.40625 46.390625 
L 45.40625 75.984375 
L 54.390625 75.984375 
L 54.390625 0 
L 45.40625 0 
L 45.40625 8.203125 
Q 42.578125 3.328125 38.25 0.953125 
Q 33.9375 -1.421875 27.875 -1.421875 
Q 17.96875 -1.421875 11.734375 6.484375 
Q 5.515625 14.40625 5.515625 27.296875 
Q 5.515625 40.1875 11.734375 48.09375 
Q 17.96875 56 27.875 56 
Q 33.9375 56 38.25 53.625 
Q 42.578125 51.265625 45.40625 46.390625 
z
M 14.796875 27.296875 
Q 14.796875 17.390625 18.875 11.75 
Q 22.953125 6.109375 30.078125 6.109375 
Q 37.203125 6.109375 41.296875 11.75 
Q 45.40625 17.390625 45.40625 27.296875 
Q 45.40625 37.203125 41.296875 42.84375 
Q 37.203125 48.484375 30.078125 48.484375 
Q 22.953125 48.484375 18.875 42.84375 
Q 14.796875 37.203125 14.796875 27.296875 
z
" id="DejaVuSans-100"/>
      <path d="M 56.203125 29.59375 
L 56.203125 25.203125 
L 14.890625 25.203125 
Q 15.484375 15.921875 20.484375 11.0625 
Q 25.484375 6.203125 34.421875 6.203125 
Q 39.59375 6.203125 44.453125 7.46875 
Q 49.3125 8.734375 54.109375 11.28125 
L 54.109375 2.78125 
Q 49.265625 0.734375 44.1875 -0.34375 
Q 39.109375 -1.421875 33.890625 -1.421875 
Q 20.796875 -1.421875 13.15625 6.1875 
Q 5.515625 13.8125 5.515625 26.8125 
Q 5.515625 40.234375 12.765625 48.109375 
Q 20.015625 56 32.328125 56 
Q 43.359375 56 49.78125 48.890625 
Q 56.203125 41.796875 56.203125 29.59375 
z
M 47.21875 32.234375 
Q 47.125 39.59375 43.09375 43.984375 
Q 39.0625 48.390625 32.421875 48.390625 
Q 24.90625 48.390625 20.390625 44.140625 
Q 15.875 39.890625 15.1875 32.171875 
z
" id="DejaVuSans-101"/>
      <path d="M 45.40625 27.984375 
Q 45.40625 37.75 41.375 43.109375 
Q 37.359375 48.484375 30.078125 48.484375 
Q 22.859375 48.484375 18.828125 43.109375 
Q 14.796875 37.75 14.796875 27.984375 
Q 14.796875 18.265625 18.828125 12.890625 
Q 22.859375 7.515625 30.078125 7.515625 
Q 37.359375 7.515625 41.375 12.890625 
Q 45.40625 18.265625 45.40625 27.984375 
z
M 54.390625 6.78125 
Q 54.390625 -7.171875 48.1875 -13.984375 
Q 42 -20.796875 29.203125 -20.796875 
Q 24.46875 -20.796875 20.265625 -20.09375 
Q 16.0625 -19.390625 12.109375 -17.921875 
L 12.109375 -9.1875 
Q 16.0625 -11.328125 19.921875 -12.34375 
Q 23.78125 -13.375 27.78125 -13.375 
Q 36.625 -13.375 41.015625 -8.765625 
Q 45.40625 -4.15625 45.40625 5.171875 
L 45.40625 9.625 
Q 42.625 4.78125 38.28125 2.390625 
Q 33.9375 0 27.875 0 
Q 17.828125 0 11.671875 7.65625 
Q 5.515625 15.328125 5.515625 27.984375 
Q 5.515625 40.671875 11.671875 48.328125 
Q 17.828125 56 27.875 56 
Q 33.9375 56 38.28125 53.609375 
Q 42.625 51.21875 45.40625 46.390625 
L 45.40625 54.6875 
L 54.390625 54.6875 
z
" id="DejaVuSans-103"/>
      <path d="M 8.015625 75.875 
L 15.828125 75.875 
Q 23.140625 64.359375 26.78125 53.3125 
Q 30.421875 42.28125 30.421875 31.390625 
Q 30.421875 20.453125 26.78125 9.375 
Q 23.140625 -1.703125 15.828125 -13.1875 
L 8.015625 -13.1875 
Q 14.5 -2 17.703125 9.0625 
Q 20.90625 20.125 20.90625 31.390625 
Q 20.90625 42.671875 17.703125 53.65625 
Q 14.5 64.65625 8.015625 75.875 
z
" id="DejaVuSans-41"/>
     </defs>
     <g transform="translate(19.449375 202.938594)rotate(-90)scale(0.14 -0.14)">
      <use xlink:href="#DejaVuSans-68"/>
      <use x="77.001953" xlink:href="#DejaVuSans-111"/>
      <use x="138.183594" xlink:href="#DejaVuSans-86"/>
      <use x="206.591797" xlink:href="#DejaVuSans-77"/>
      <use x="292.871094" xlink:href="#DejaVuSans-32"/>
      <use x="324.658203" xlink:href="#DejaVuSans-65"/>
      <use x="393.066406" xlink:href="#DejaVuSans-109"/>
      <use x="490.478516" xlink:href="#DejaVuSans-112"/>
      <use x="553.955078" xlink:href="#DejaVuSans-32"/>
      <use x="585.742188" xlink:href="#DejaVuSans-40"/>
      <use x="624.755859" xlink:href="#DejaVuSans-100"/>
      <use x="688.232422" xlink:href="#DejaVuSans-101"/>
      <use x="749.755859" xlink:href="#DejaVuSans-103"/>
      <use x="813.232422" xlink:href="#DejaVuSans-41"/>
     </g>
    </g>
   </g>
   <g id="PathCollection_2">
    <defs>
     <path d="M 0 3.383948 
C 0.897434 3.383948 1.758231 3.027394 2.392813 2.392813 
C 3.027394 1.758231 3.383948 0.897434 3.383948 0 
C 3.383948 -0.897434 3.027394 -1.758231 2.392813 -2.392813 
C 1.758231 -3.027394 0.897434 -3.383948 0 -3.383948 
C -0.897434 -3.383948 -1.758231 -3.027394 -2.392813 -2.392813 
C -3.027394 -1.758231 -3.383948 -0.897434 -3.383948 0 
C -3.383948 0.897434 -3.027394 1.758231 -2.392813 2.392813 
C -1.758231 3.027394 -0.897434 3.383948 0 3.383948 
z
" id="C1_0_3ea774d899"/>
    </defs>
    <g clip-path="url(#pe48b36a1c0)">
     <use style="fill:#1f78b4;stroke:#1f78b4;stroke-width:2.025;" x="64.54" xlink:href="#C1_0_3ea774d899" y="82.665781"/>
    </g>
    <g clip-path="url(#pe48b36a1c0)">
     <use style="fill:#1f78b4;stroke:#1f78b4;stroke-width:2.025;" x="126.54" xlink:href="#C1_0_3ea774d899" y="160.956965"/>
    </g>
    <g clip-path="url(#pe48b36a1c0)">
     <use style="fill:#1f78b4;stroke:#1f78b4;stroke-width:2.025;" x="188.54" xlink:href="#C1_0_3ea774d899" y="195.791456"/>
    </g>
    <g clip-path="url(#pe48b36a1c0)">
     <use style="fill:#1f78b4;stroke:#1f78b4;stroke-width:2.025;" x="250.54" xlink:href="#C1_0_3ea774d899" y="203.579909"/>
    </g>
    <g clip-path="url(#pe48b36a1c0)">
     <use style="fill:#1f78b4;stroke:#1f78b4;stroke-width:2.025;" x="312.54" xlink:href="#C1_0_3ea774d899" y="198.929938"/>
    </g>
    <g clip-path="url(#pe48b36a1c0)">
     <use style="fill:#1f78b4;stroke:#1f78b4;stroke-width:2.025;" x="374.54" xlink:href="#C1_0_3ea774d899" y="181.595375"/>
    </g>
   </g>
   <g id="line2d_18">
    <path clip-path="url(#pe48b36a1c0)" d="M 64.54 82.665781 
L 126.54 160.956965 
L 188.54 195.791456 
L 250.54 203.579909 
L 312.54 198.929938 
L 374.54 181.595375 
" style="fill:none;stroke:#1f78b4;stroke-linecap:square;stroke-width:2.7;"/>
   </g>
   <g id="line2d_19">
    <path clip-path="url(#pe48b36a1c0)" d="M 64.54 96.70764 
L 64.54 67.899469 
" style="fill:none;stroke:#1f78b4;stroke-linecap:square;stroke-width:2.7;"/>
   </g>
   <g id="line2d_20">
    <path clip-path="url(#pe48b36a1c0)" d="M 126.54 173.350701 
L 126.54 148.283861 
" style="fill:none;stroke:#1f78b4;stroke-linecap:square;stroke-width:2.7;"/>
   </g>
   <g id="line2d_21">
    <path clip-path="url(#pe48b36a1c0)" d="M 188.54 212.565443 
L 188.54 178.415629 
" style="fill:none;stroke:#1f78b4;stroke-linecap:square;stroke-width:2.7;"/>
   </g>
   <g id="line2d_22">
    <path clip-path="url(#pe48b36a1c0)" d="M 250.54 217.609465 
L 250.54 191.090581 
" style="fill:none;stroke:#1f78b4;stroke-linecap:square;stroke-width:2.7;"/>
   </g>
   <g id="line2d_23">
    <path clip-path="url(#pe48b36a1c0)" d="M 312.54 212.004456 
L 312.54 183.361861 
" style="fill:none;stroke:#1f78b4;stroke-linecap:square;stroke-width:2.7;"/>
   </g>
   <g id="line2d_24">
    <path clip-path="url(#pe48b36a1c0)" d="M 374.54 196.252711 
L 374.54 166.991778 
" style="fill:none;stroke:#1f78b4;stroke-linecap:square;stroke-width:2.7;"/>
   </g>
   <g id="line2d_25">
    <path clip-path="url(#pe48b36a1c0)" d="M 54 179.52 
L 388.8 179.52 
" style="fill:none;stroke:#000000;stroke-linecap:square;stroke-width:1.5;"/>
   </g>
   <g id="patch_3">
    <path d="M 54 252 
L 54 34.56 
" style="fill:none;stroke:#000000;stroke-linecap:square;stroke-linejoin:miter;stroke-width:0.8;"/>
   </g>
   <g id="patch_4">
    <path d="M 388.8 252 
L 388.8 34.56 
" style="fill:none;stroke:#000000;stroke-linecap:square;stroke-linejoin:miter;stroke-width:0.8;"/>
   </g>
   <g id="patch_5">
    <path d="M 54 252 
L 388.8 252 
" style="fill:none;stroke:#000000;stroke-linecap:square;stroke-linejoin:miter;stroke-width:0.8;"/>
   </g>
   <g id="patch_6">
    <path d="M 54 34.56 
L 388.8 34.56 
" style="fill:none;stroke:#000000;stroke-linecap:square;stroke-linejoin:miter;stroke-width:0.8;"/>
   </g>
   <g id="PathCollection_3">
    <defs>
     <path d="M 0 3.383948 
C 0.897434 3.383948 1.758231 3.027394 2.392813 2.392813 
C 3.027394 1.758231 3.383948 0.897434 3.383948 0 
C 3.383948 -0.897434 3.027394 -1.758231 2.392813 -2.392813 
C 1.758231 -3.027394 0.897434 -3.383948 0 -3.383948 
C -0.897434 -3.383948 -1.758231 -3.027394 -2.392813 -2.392813 
C -3.027394 -1.758231 -3.383948 -0.897434 -3.383948 0 
C -3.383948 0.897434 -3.027394 1.758231 -2.392813 2.392813 
C -1.758231 3.027394 -0.897434 3.383948 0 3.383948 
z
" id="C2_0_0456fa8656"/>
    </defs>
    <g clip-path="url(#pe48b36a1c0)">
     <use style="fill:#b2df8a;stroke:#b2df8a;stroke-width:2.025;" x="68.26" xlink:href="#C2_0_0456fa8656" y="133.26413"/>
    </g>
    <g clip-path="url(#pe48b36a1c0)">
     <use style="fill:#b2df8a;stroke:#b2df8a;stroke-width:2.025;" x="130.26" xlink:href="#C2_0_0456fa8656" y="114.133324"/>
    </g>
    <g clip-path="url(#pe48b36a1c0)">
     <use style="fill:#b2df8a;stroke:#b2df8a;stroke-width:2.025;" x="192.26" xlink:href="#C2_0_0456fa8656" y="152.96259"/>
    </g>
    <g clip-path="url(#pe48b36a1c0)">
     <use style="fill:#b2df8a;stroke:#b2df8a;stroke-width:2.025;" x="254.26" xlink:href="#C2_0_0456fa8656" y="193.222002"/>
    </g>
    <g clip-path="url(#pe48b36a1c0)">
     <use style="fill:#b2df8a;stroke:#b2df8a;stroke-width:2.025;" x="316.26" xlink:href="#C2_0_0456fa8656" y="198.467729"/>
    </g>
    <g clip-path="url(#pe48b36a1c0)">
     <use style="fill:#b2df8a;stroke:#b2df8a;stroke-width:2.025;" x="378.26" xlink:href="#C2_0_0456fa8656" y="162.166414"/>
    </g>
   </g>
   <g id="line2d_26">
    <path clip-path="url(#pe48b36a1c0)" d="M 68.26 133.26413 
L 130.26 114.133324 
L 192.26 152.96259 
L 254.26 193.222002 
L 316.26 198.467729 
L 378.26 162.166414 
" style="fill:none;stroke:#b2df8a;stroke-linecap:square;stroke-width:2.7;"/>
   </g>
   <g id="line2d_27">
    <path clip-path="url(#pe48b36a1c0)" d="M 68.26 146.232597 
L 68.26 120.708158 
" style="fill:none;stroke:#b2df8a;stroke-linecap:square;stroke-width:2.7;"/>
   </g>
   <g id="line2d_28">
    <path clip-path="url(#pe48b36a1c0)" d="M 130.26 126.206767 
L 130.26 101.549516 
" style="fill:none;stroke:#b2df8a;stroke-linecap:square;stroke-width:2.7;"/>
   </g>
   <g id="line2d_29">
    <path clip-path="url(#pe48b36a1c0)" d="M 192.26 166.073548 
L 192.26 139.348127 
" style="fill:none;stroke:#b2df8a;stroke-linecap:square;stroke-width:2.7;"/>
   </g>
   <g id="line2d_30">
    <path clip-path="url(#pe48b36a1c0)" d="M 254.26 204.428994 
L 254.26 182.301399 
" style="fill:none;stroke:#b2df8a;stroke-linecap:square;stroke-width:2.7;"/>
   </g>
   <g id="line2d_31">
    <path clip-path="url(#pe48b36a1c0)" d="M 316.26 209.031762 
L 316.26 188.496891 
" style="fill:none;stroke:#b2df8a;stroke-linecap:square;stroke-width:2.7;"/>
   </g>
   <g id="line2d_32">
    <path clip-path="url(#pe48b36a1c0)" d="M 378.26 178.838914 
L 378.26 146.172558 
" style="fill:none;stroke:#b2df8a;stroke-linecap:square;stroke-width:2.7;"/>
   </g>
   <g id="PathCollection_4">
    <defs>
     <path d="M 0 3.383948 
C 0.897434 3.383948 1.758231 3.027394 2.392813 2.392813 
C 3.027394 1.758231 3.383948 0.897434 3.383948 0 
C 3.383948 -0.897434 3.027394 -1.758231 2.392813 -2.392813 
C 1.758231 -3.027394 0.897434 -3.383948 0 -3.383948 
C -0.897434 -3.383948 -1.758231 -3.027394 -2.392813 -2.392813 
C -3.027394 -1.758231 -3.383948 -0.897434 -3.383948 0 
C -3.383948 0.897434 -3.027394 1.758231 -2.392813 2.392813 
C -1.758231 3.027394 -0.897434 3.383948 0 3.383948 
z
" id="C3_0_a91d300d8c"/>
    </defs>
    <g clip-path="url(#pe48b36a1c0)">
     <use style="fill:#33a02c;stroke:#33a02c;stroke-width:2.025;" x="71.98" xlink:href="#C3_0_a91d300d8c" y="141.187556"/>
    </g>
    <g clip-path="url(#pe48b36a1c0)">
     <use style="fill:#33a02c;stroke:#33a02c;stroke-width:2.025;" x="133.98" xlink:href="#C3_0_a91d300d8c" y="123.604029"/>
    </g>
    <g clip-path="url(#pe48b36a1c0)">
     <use style="fill:#33a02c;stroke:#33a02c;stroke-width:2.025;" x="195.98" xlink:href="#C3_0_a91d300d8c" y="147.254174"/>
    </g>
    <g clip-path="url(#pe48b36a1c0)">
     <use style="fill:#33a02c;stroke:#33a02c;stroke-width:2.025;" x="257.98" xlink:href="#C3_0_a91d300d8c" y="137.351797"/>
    </g>
    <g clip-path="url(#pe48b36a1c0)">
     <use style="fill:#33a02c;stroke:#33a02c;stroke-width:2.025;" x="319.98" xlink:href="#C3_0_a91d300d8c" y="152.782539"/>
    </g>
    <g clip-path="url(#pe48b36a1c0)">
     <use style="fill:#33a02c;stroke:#33a02c;stroke-width:2.025;" x="381.98" xlink:href="#C3_0_a91d300d8c" y="162.213965"/>
    </g>
   </g>
   <g id="line2d_33">
    <path clip-path="url(#pe48b36a1c0)" d="M 71.98 141.187556 
L 133.98 123.604029 
L 195.98 147.254174 
L 257.98 137.351797 
L 319.98 152.782539 
L 381.98 162.213965 
" style="fill:none;stroke:#33a02c;stroke-linecap:square;stroke-width:2.7;"/>
   </g>
   <g id="line2d_34">
    <path clip-path="url(#pe48b36a1c0)" d="M 71.98 153.803091 
L 71.98 128.091563 
" style="fill:none;stroke:#33a02c;stroke-linecap:square;stroke-width:2.7;"/>
   </g>
   <g id="line2d_35">
    <path clip-path="url(#pe48b36a1c0)" d="M 133.98 141.604682 
L 133.98 107.761063 
" style="fill:none;stroke:#33a02c;stroke-linecap:square;stroke-width:2.7;"/>
   </g>
   <g id="line2d_36">
    <path clip-path="url(#pe48b36a1c0)" d="M 195.98 159.436203 
L 195.98 133.928313 
" style="fill:none;stroke:#33a02c;stroke-linecap:square;stroke-width:2.7;"/>
   </g>
   <g id="line2d_37">
    <path clip-path="url(#pe48b36a1c0)" d="M 257.98 149.488001 
L 257.98 125.719983 
" style="fill:none;stroke:#33a02c;stroke-linecap:square;stroke-width:2.7;"/>
   </g>
   <g id="line2d_38">
    <path clip-path="url(#pe48b36a1c0)" d="M 319.98 166.035519 
L 319.98 140.519591 
" style="fill:none;stroke:#33a02c;stroke-linecap:square;stroke-width:2.7;"/>
   </g>
   <g id="line2d_39">
    <path clip-path="url(#pe48b36a1c0)" d="M 381.98 176.439242 
L 381.98 148.15482 
" style="fill:none;stroke:#33a02c;stroke-linecap:square;stroke-width:2.7;"/>
   </g>
   <g id="legend_1">
    <g id="patch_7">
     <path d="M 373.4 52.76 
L 379 52.76 
Q 381.8 52.76 381.8 49.96 
L 381.8 44.36 
Q 381.8 41.56 379 41.56 
L 373.4 41.56 
Q 370.6 41.56 370.6 44.36 
L 370.6 49.96 
Q 370.6 52.76 373.4 52.76 
z
" style="fill:#ffffff;opacity:0.8;stroke:#cccccc;stroke-linejoin:miter;"/>
    </g>
   </g>
  </g>
 </g>
 <defs>
  <clipPath id="pe48b36a1c0">
   <rect height="217.44" width="334.8" x="54" y="34.56"/>
  </clipPath>
 </defs>
</svg>
