<?xml version="1.0" encoding="utf-8" standalone="no"?>
<!DOCTYPE svg PUBLIC "-//W3C//DTD SVG 1.1//EN"
  "http://www.w3.org/Graphics/SVG/1.1/DTD/svg11.dtd">
<!-- Created with matplotlib (https://matplotlib.org/) -->
<svg height="288pt" version="1.1" viewBox="0 0 864 288" width="864pt" xmlns="http://www.w3.org/2000/svg" xmlns:xlink="http://www.w3.org/1999/xlink">
 <defs>
  <style type="text/css">
*{stroke-linecap:butt;stroke-linejoin:round;}
  </style>
 </defs>
 <g id="figure_1">
  <g id="patch_1">
   <path d="M 0 288 
L 864 288 
L 864 0 
L 0 0 
z
" style="fill:#ffffff;"/>
  </g>
  <g id="axes_1">
   <g id="patch_2">
    <path d="M 108 252 
L 304.941176 252 
L 304.941176 34.56 
L 108 34.56 
z
" style="fill:#ffffff;"/>
   </g>
   <g id="PolyCollection_1">
    <defs>
     <path d="M 108 -150.464243 
L 108 -139.559598 
L 114.352941 -146.550735 
L 120.705882 -144.832529 
L 127.058824 -143.12888 
L 133.411765 -139.373032 
L 139.764706 -131.745406 
L 146.117647 -121.985366 
L 152.470588 -114.286573 
L 158.823529 -105.790823 
L 165.176471 -99.917084 
L 171.529412 -94.743751 
L 177.882353 -99.96815 
L 184.235294 -104.317293 
L 190.588235 -108.025979 
L 196.941176 -120.090531 
L 203.294118 -137.975937 
L 209.647059 -151.118651 
L 216 -167.018475 
L 222.352941 -172.022067 
L 228.705882 -175.035227 
L 235.058824 -174.5331 
L 241.411765 -174.992513 
L 247.764706 -177.569543 
L 254.117647 -172.905976 
L 260.470588 -162.560547 
L 266.823529 -150.919876 
L 273.176471 -150.055741 
L 279.529412 -142.471319 
L 285.882353 -131.147729 
L 292.235294 -122.774437 
L 298.588235 -128.01306 
L 304.941176 -133.423359 
L 304.941176 -147.339436 
L 304.941176 -147.339436 
L 298.588235 -141.688873 
L 292.235294 -137.151168 
L 285.882353 -143.599092 
L 279.529412 -155.769473 
L 273.176471 -165.397198 
L 266.823529 -166.951045 
L 260.470588 -179.532484 
L 254.117647 -186.493056 
L 247.764706 -190.306068 
L 241.411765 -187.855919 
L 235.058824 -184.690051 
L 228.705882 -183.97813 
L 222.352941 -180.759021 
L 216 -174.284203 
L 209.647059 -158.167994 
L 203.294118 -144.825744 
L 196.941176 -128.108318 
L 190.588235 -116.717569 
L 184.235294 -112.716497 
L 177.882353 -108.620029 
L 171.529412 -103.06085 
L 165.176471 -108.5453 
L 158.823529 -114.643177 
L 152.470588 -125.381191 
L 146.117647 -131.348029 
L 139.764706 -141.63148 
L 133.411765 -150.725445 
L 127.058824 -152.111058 
L 120.705882 -155.26342 
L 114.352941 -156.919831 
L 108 -150.464243 
z
" id="m5068ec47d8" style="stroke:#808080;stroke-opacity:0.6;"/>
    </defs>
    <g clip-path="url(#p5f5a2610fd)">
     <use style="fill:#808080;fill-opacity:0.6;stroke:#808080;stroke-opacity:0.6;" x="0" xlink:href="#m5068ec47d8" y="288"/>
    </g>
   </g>
   <g id="matplotlib.axis_1">
    <g id="xtick_1">
     <g id="line2d_1">
      <defs>
       <path d="M 0 0 
L 0 3.5 
" id="me0b7e9aa1f" style="stroke:#000000;stroke-width:0.8;"/>
      </defs>
      <g>
       <use style="stroke:#000000;stroke-width:0.8;" x="108" xlink:href="#me0b7e9aa1f" y="252"/>
      </g>
     </g>
     <g id="text_1">
      <!-- −180 -->
      <defs>
       <path d="M 10.59375 35.5 
L 73.1875 35.5 
L 73.1875 27.203125 
L 10.59375 27.203125 
z
" id="DejaVuSans-8722"/>
       <path d="M 12.40625 8.296875 
L 28.515625 8.296875 
L 28.515625 63.921875 
L 10.984375 60.40625 
L 10.984375 69.390625 
L 28.421875 72.90625 
L 38.28125 72.90625 
L 38.28125 8.296875 
L 54.390625 8.296875 
L 54.390625 0 
L 12.40625 0 
z
" id="DejaVuSans-49"/>
       <path d="M 31.78125 34.625 
Q 24.75 34.625 20.71875 30.859375 
Q 16.703125 27.09375 16.703125 20.515625 
Q 16.703125 13.921875 20.71875 10.15625 
Q 24.75 6.390625 31.78125 6.390625 
Q 38.8125 6.390625 42.859375 10.171875 
Q 46.921875 13.96875 46.921875 20.515625 
Q 46.921875 27.09375 42.890625 30.859375 
Q 38.875 34.625 31.78125 34.625 
z
M 21.921875 38.8125 
Q 15.578125 40.375 12.03125 44.71875 
Q 8.5 49.078125 8.5 55.328125 
Q 8.5 64.0625 14.71875 69.140625 
Q 20.953125 74.21875 31.78125 74.21875 
Q 42.671875 74.21875 48.875 69.140625 
Q 55.078125 64.0625 55.078125 55.328125 
Q 55.078125 49.078125 51.53125 44.71875 
Q 48 40.375 41.703125 38.8125 
Q 48.828125 37.15625 52.796875 32.3125 
Q 56.78125 27.484375 56.78125 20.515625 
Q 56.78125 9.90625 50.3125 4.234375 
Q 43.84375 -1.421875 31.78125 -1.421875 
Q 19.734375 -1.421875 13.25 4.234375 
Q 6.78125 9.90625 6.78125 20.515625 
Q 6.78125 27.484375 10.78125 32.3125 
Q 14.796875 37.15625 21.921875 38.8125 
z
M 18.3125 54.390625 
Q 18.3125 48.734375 21.84375 45.5625 
Q 25.390625 42.390625 31.78125 42.390625 
Q 38.140625 42.390625 41.71875 45.5625 
Q 45.3125 48.734375 45.3125 54.390625 
Q 45.3125 60.0625 41.71875 63.234375 
Q 38.140625 66.40625 31.78125 66.40625 
Q 25.390625 66.40625 21.84375 63.234375 
Q 18.3125 60.0625 18.3125 54.390625 
z
" id="DejaVuSans-56"/>
       <path d="M 31.78125 66.40625 
Q 24.171875 66.40625 20.328125 58.90625 
Q 16.5 51.421875 16.5 36.375 
Q 16.5 21.390625 20.328125 13.890625 
Q 24.171875 6.390625 31.78125 6.390625 
Q 39.453125 6.390625 43.28125 13.890625 
Q 47.125 21.390625 47.125 36.375 
Q 47.125 51.421875 43.28125 58.90625 
Q 39.453125 66.40625 31.78125 66.40625 
z
M 31.78125 74.21875 
Q 44.046875 74.21875 50.515625 64.515625 
Q 56.984375 54.828125 56.984375 36.375 
Q 56.984375 17.96875 50.515625 8.265625 
Q 44.046875 -1.421875 31.78125 -1.421875 
Q 19.53125 -1.421875 13.0625 8.265625 
Q 6.59375 17.96875 6.59375 36.375 
Q 6.59375 54.828125 13.0625 64.515625 
Q 19.53125 74.21875 31.78125 74.21875 
z
" id="DejaVuSans-48"/>
      </defs>
      <g transform="translate(88.772969 269.637812)scale(0.14 -0.14)">
       <use xlink:href="#DejaVuSans-8722"/>
       <use x="83.789062" xlink:href="#DejaVuSans-49"/>
       <use x="147.412109" xlink:href="#DejaVuSans-56"/>
       <use x="211.035156" xlink:href="#DejaVuSans-48"/>
      </g>
     </g>
    </g>
    <g id="xtick_2">
     <g id="line2d_2">
      <g>
       <use style="stroke:#000000;stroke-width:0.8;" x="157.235294" xlink:href="#me0b7e9aa1f" y="252"/>
      </g>
     </g>
     <g id="text_2">
      <!-- −90 -->
      <defs>
       <path d="M 10.984375 1.515625 
L 10.984375 10.5 
Q 14.703125 8.734375 18.5 7.8125 
Q 22.3125 6.890625 25.984375 6.890625 
Q 35.75 6.890625 40.890625 13.453125 
Q 46.046875 20.015625 46.78125 33.40625 
Q 43.953125 29.203125 39.59375 26.953125 
Q 35.25 24.703125 29.984375 24.703125 
Q 19.046875 24.703125 12.671875 31.3125 
Q 6.296875 37.9375 6.296875 49.421875 
Q 6.296875 60.640625 12.9375 67.421875 
Q 19.578125 74.21875 30.609375 74.21875 
Q 43.265625 74.21875 49.921875 64.515625 
Q 56.59375 54.828125 56.59375 36.375 
Q 56.59375 19.140625 48.40625 8.859375 
Q 40.234375 -1.421875 26.421875 -1.421875 
Q 22.703125 -1.421875 18.890625 -0.6875 
Q 15.09375 0.046875 10.984375 1.515625 
z
M 30.609375 32.421875 
Q 37.25 32.421875 41.125 36.953125 
Q 45.015625 41.5 45.015625 49.421875 
Q 45.015625 57.28125 41.125 61.84375 
Q 37.25 66.40625 30.609375 66.40625 
Q 23.96875 66.40625 20.09375 61.84375 
Q 16.21875 57.28125 16.21875 49.421875 
Q 16.21875 41.5 20.09375 36.953125 
Q 23.96875 32.421875 30.609375 32.421875 
z
" id="DejaVuSans-57"/>
      </defs>
      <g transform="translate(142.462013 269.637812)scale(0.14 -0.14)">
       <use xlink:href="#DejaVuSans-8722"/>
       <use x="83.789062" xlink:href="#DejaVuSans-57"/>
       <use x="147.412109" xlink:href="#DejaVuSans-48"/>
      </g>
     </g>
    </g>
    <g id="xtick_3">
     <g id="line2d_3">
      <g>
       <use style="stroke:#000000;stroke-width:0.8;" x="206.470588" xlink:href="#me0b7e9aa1f" y="252"/>
      </g>
     </g>
     <g id="text_3">
      <!-- 0 -->
      <g transform="translate(202.016838 269.637812)scale(0.14 -0.14)">
       <use xlink:href="#DejaVuSans-48"/>
      </g>
     </g>
    </g>
    <g id="xtick_4">
     <g id="line2d_4">
      <g>
       <use style="stroke:#000000;stroke-width:0.8;" x="255.705882" xlink:href="#me0b7e9aa1f" y="252"/>
      </g>
     </g>
     <g id="text_4">
      <!-- 90 -->
      <g transform="translate(246.798382 269.637812)scale(0.14 -0.14)">
       <use xlink:href="#DejaVuSans-57"/>
       <use x="63.623047" xlink:href="#DejaVuSans-48"/>
      </g>
     </g>
    </g>
    <g id="xtick_5">
     <g id="line2d_5">
      <g>
       <use style="stroke:#000000;stroke-width:0.8;" x="304.941176" xlink:href="#me0b7e9aa1f" y="252"/>
      </g>
     </g>
     <g id="text_5">
      <!-- 180 -->
      <g transform="translate(291.579926 269.637812)scale(0.14 -0.14)">
       <use xlink:href="#DejaVuSans-49"/>
       <use x="63.623047" xlink:href="#DejaVuSans-56"/>
       <use x="127.246094" xlink:href="#DejaVuSans-48"/>
      </g>
     </g>
    </g>
    <g id="text_6">
     <!-- $\Delta\theta$ -->
     <defs>
      <path d="M 34.1875 63.1875 
L 14.15625 8.203125 
L 54.25 8.203125 
z
M 0.78125 0 
L 28.609375 72.90625 
L 39.796875 72.90625 
L 67.578125 0 
z
" id="DejaVuSans-916"/>
      <path d="M 45.515625 34.671875 
L 14.453125 34.671875 
Q 12.359375 20.0625 14.5 13.875 
Q 17.1875 6.25 24.46875 6.25 
Q 31.78125 6.25 37.359375 13.921875 
Q 42.234375 20.65625 45.515625 34.671875 
z
M 47.015625 42.96875 
Q 48.34375 56.84375 46.625 61.71875 
Q 43.953125 69.4375 36.765625 69.4375 
Q 29.296875 69.4375 23.828125 61.8125 
Q 19.53125 55.671875 16.15625 42.96875 
z
M 38.1875 76.765625 
Q 49.90625 76.765625 54.59375 66.40625 
Q 59.28125 56.109375 55.71875 37.84375 
Q 52.203125 19.625 43.453125 9.28125 
Q 34.765625 -1.125 23.046875 -1.125 
Q 11.28125 -1.125 6.640625 9.28125 
Q 2 19.625 5.515625 37.84375 
Q 9.078125 56.109375 17.71875 66.40625 
Q 26.421875 76.765625 38.1875 76.765625 
z
" id="DejaVuSans-Oblique-952"/>
     </defs>
     <g transform="translate(197.370588 287.187187)scale(0.14 -0.14)">
      <use transform="translate(0 0.234375)" xlink:href="#DejaVuSans-916"/>
      <use transform="translate(68.408203 0.234375)" xlink:href="#DejaVuSans-Oblique-952"/>
     </g>
    </g>
   </g>
   <g id="matplotlib.axis_2">
    <g id="ytick_1">
     <g id="line2d_6">
      <defs>
       <path d="M 0 0 
L -3.5 0 
" id="ma1ddf6cef0" style="stroke:#000000;stroke-width:0.8;"/>
      </defs>
      <g>
       <use style="stroke:#000000;stroke-width:0.8;" x="108" xlink:href="#ma1ddf6cef0" y="252"/>
      </g>
     </g>
     <g id="text_7">
      <!-- −3 -->
      <defs>
       <path d="M 40.578125 39.3125 
Q 47.65625 37.796875 51.625 33 
Q 55.609375 28.21875 55.609375 21.1875 
Q 55.609375 10.40625 48.1875 4.484375 
Q 40.765625 -1.421875 27.09375 -1.421875 
Q 22.515625 -1.421875 17.65625 -0.515625 
Q 12.796875 0.390625 7.625 2.203125 
L 7.625 11.71875 
Q 11.71875 9.328125 16.59375 8.109375 
Q 21.484375 6.890625 26.8125 6.890625 
Q 36.078125 6.890625 40.9375 10.546875 
Q 45.796875 14.203125 45.796875 21.1875 
Q 45.796875 27.640625 41.28125 31.265625 
Q 36.765625 34.90625 28.71875 34.90625 
L 20.21875 34.90625 
L 20.21875 43.015625 
L 29.109375 43.015625 
Q 36.375 43.015625 40.234375 45.921875 
Q 44.09375 48.828125 44.09375 54.296875 
Q 44.09375 59.90625 40.109375 62.90625 
Q 36.140625 65.921875 28.71875 65.921875 
Q 24.65625 65.921875 20.015625 65.03125 
Q 15.375 64.15625 9.8125 62.3125 
L 9.8125 71.09375 
Q 15.4375 72.65625 20.34375 73.4375 
Q 25.25 74.21875 29.59375 74.21875 
Q 40.828125 74.21875 47.359375 69.109375 
Q 53.90625 64.015625 53.90625 55.328125 
Q 53.90625 49.265625 50.4375 45.09375 
Q 46.96875 40.921875 40.578125 39.3125 
z
" id="DejaVuSans-51"/>
      </defs>
      <g transform="translate(80.360938 257.318906)scale(0.14 -0.14)">
       <use xlink:href="#DejaVuSans-8722"/>
       <use x="83.789062" xlink:href="#DejaVuSans-51"/>
      </g>
     </g>
    </g>
    <g id="ytick_2">
     <g id="line2d_7">
      <g>
       <use style="stroke:#000000;stroke-width:0.8;" x="108" xlink:href="#ma1ddf6cef0" y="215.76"/>
      </g>
     </g>
     <g id="text_8">
      <!-- −2 -->
      <defs>
       <path d="M 19.1875 8.296875 
L 53.609375 8.296875 
L 53.609375 0 
L 7.328125 0 
L 7.328125 8.296875 
Q 12.9375 14.109375 22.625 23.890625 
Q 32.328125 33.6875 34.8125 36.53125 
Q 39.546875 41.84375 41.421875 45.53125 
Q 43.3125 49.21875 43.3125 52.78125 
Q 43.3125 58.59375 39.234375 62.25 
Q 35.15625 65.921875 28.609375 65.921875 
Q 23.96875 65.921875 18.8125 64.3125 
Q 13.671875 62.703125 7.8125 59.421875 
L 7.8125 69.390625 
Q 13.765625 71.78125 18.9375 73 
Q 24.125 74.21875 28.421875 74.21875 
Q 39.75 74.21875 46.484375 68.546875 
Q 53.21875 62.890625 53.21875 53.421875 
Q 53.21875 48.921875 51.53125 44.890625 
Q 49.859375 40.875 45.40625 35.40625 
Q 44.1875 33.984375 37.640625 27.21875 
Q 31.109375 20.453125 19.1875 8.296875 
z
" id="DejaVuSans-50"/>
      </defs>
      <g transform="translate(80.360938 221.078906)scale(0.14 -0.14)">
       <use xlink:href="#DejaVuSans-8722"/>
       <use x="83.789062" xlink:href="#DejaVuSans-50"/>
      </g>
     </g>
    </g>
    <g id="ytick_3">
     <g id="line2d_8">
      <g>
       <use style="stroke:#000000;stroke-width:0.8;" x="108" xlink:href="#ma1ddf6cef0" y="179.52"/>
      </g>
     </g>
     <g id="text_9">
      <!-- −1 -->
      <g transform="translate(80.360938 184.838906)scale(0.14 -0.14)">
       <use xlink:href="#DejaVuSans-8722"/>
       <use x="83.789062" xlink:href="#DejaVuSans-49"/>
      </g>
     </g>
    </g>
    <g id="ytick_4">
     <g id="line2d_9">
      <g>
       <use style="stroke:#000000;stroke-width:0.8;" x="108" xlink:href="#ma1ddf6cef0" y="143.28"/>
      </g>
     </g>
     <g id="text_10">
      <!-- 0 -->
      <g transform="translate(92.0925 148.598906)scale(0.14 -0.14)">
       <use xlink:href="#DejaVuSans-48"/>
      </g>
     </g>
    </g>
    <g id="ytick_5">
     <g id="line2d_10">
      <g>
       <use style="stroke:#000000;stroke-width:0.8;" x="108" xlink:href="#ma1ddf6cef0" y="107.04"/>
      </g>
     </g>
     <g id="text_11">
      <!-- 1 -->
      <g transform="translate(92.0925 112.358906)scale(0.14 -0.14)">
       <use xlink:href="#DejaVuSans-49"/>
      </g>
     </g>
    </g>
    <g id="ytick_6">
     <g id="line2d_11">
      <g>
       <use style="stroke:#000000;stroke-width:0.8;" x="108" xlink:href="#ma1ddf6cef0" y="70.8"/>
      </g>
     </g>
     <g id="text_12">
      <!-- 2 -->
      <g transform="translate(92.0925 76.118906)scale(0.14 -0.14)">
       <use xlink:href="#DejaVuSans-50"/>
      </g>
     </g>
    </g>
    <g id="ytick_7">
     <g id="line2d_12">
      <g>
       <use style="stroke:#000000;stroke-width:0.8;" x="108" xlink:href="#ma1ddf6cef0" y="34.56"/>
      </g>
     </g>
     <g id="text_13">
      <!-- 3 -->
      <g transform="translate(92.0925 39.878906)scale(0.14 -0.14)">
       <use xlink:href="#DejaVuSans-51"/>
      </g>
     </g>
    </g>
    <g id="text_14">
     <!-- Bias (deg) -->
     <defs>
      <path d="M 19.671875 34.8125 
L 19.671875 8.109375 
L 35.5 8.109375 
Q 43.453125 8.109375 47.28125 11.40625 
Q 51.125 14.703125 51.125 21.484375 
Q 51.125 28.328125 47.28125 31.5625 
Q 43.453125 34.8125 35.5 34.8125 
z
M 19.671875 64.796875 
L 19.671875 42.828125 
L 34.28125 42.828125 
Q 41.5 42.828125 45.03125 45.53125 
Q 48.578125 48.25 48.578125 53.8125 
Q 48.578125 59.328125 45.03125 62.0625 
Q 41.5 64.796875 34.28125 64.796875 
z
M 9.8125 72.90625 
L 35.015625 72.90625 
Q 46.296875 72.90625 52.390625 68.21875 
Q 58.5 63.53125 58.5 54.890625 
Q 58.5 48.1875 55.375 44.234375 
Q 52.25 40.28125 46.1875 39.3125 
Q 53.46875 37.75 57.5 32.78125 
Q 61.53125 27.828125 61.53125 20.40625 
Q 61.53125 10.640625 54.890625 5.3125 
Q 48.25 0 35.984375 0 
L 9.8125 0 
z
" id="DejaVuSans-66"/>
      <path d="M 9.421875 54.6875 
L 18.40625 54.6875 
L 18.40625 0 
L 9.421875 0 
z
M 9.421875 75.984375 
L 18.40625 75.984375 
L 18.40625 64.59375 
L 9.421875 64.59375 
z
" id="DejaVuSans-105"/>
      <path d="M 34.28125 27.484375 
Q 23.390625 27.484375 19.1875 25 
Q 14.984375 22.515625 14.984375 16.5 
Q 14.984375 11.71875 18.140625 8.90625 
Q 21.296875 6.109375 26.703125 6.109375 
Q 34.1875 6.109375 38.703125 11.40625 
Q 43.21875 16.703125 43.21875 25.484375 
L 43.21875 27.484375 
z
M 52.203125 31.203125 
L 52.203125 0 
L 43.21875 0 
L 43.21875 8.296875 
Q 40.140625 3.328125 35.546875 0.953125 
Q 30.953125 -1.421875 24.3125 -1.421875 
Q 15.921875 -1.421875 10.953125 3.296875 
Q 6 8.015625 6 15.921875 
Q 6 25.140625 12.171875 29.828125 
Q 18.359375 34.515625 30.609375 34.515625 
L 43.21875 34.515625 
L 43.21875 35.40625 
Q 43.21875 41.609375 39.140625 45 
Q 35.0625 48.390625 27.6875 48.390625 
Q 23 48.390625 18.546875 47.265625 
Q 14.109375 46.140625 10.015625 43.890625 
L 10.015625 52.203125 
Q 14.9375 54.109375 19.578125 55.046875 
Q 24.21875 56 28.609375 56 
Q 40.484375 56 46.34375 49.84375 
Q 52.203125 43.703125 52.203125 31.203125 
z
" id="DejaVuSans-97"/>
      <path d="M 44.28125 53.078125 
L 44.28125 44.578125 
Q 40.484375 46.53125 36.375 47.5 
Q 32.28125 48.484375 27.875 48.484375 
Q 21.1875 48.484375 17.84375 46.4375 
Q 14.5 44.390625 14.5 40.28125 
Q 14.5 37.15625 16.890625 35.375 
Q 19.28125 33.59375 26.515625 31.984375 
L 29.59375 31.296875 
Q 39.15625 29.25 43.1875 25.515625 
Q 47.21875 21.78125 47.21875 15.09375 
Q 47.21875 7.46875 41.1875 3.015625 
Q 35.15625 -1.421875 24.609375 -1.421875 
Q 20.21875 -1.421875 15.453125 -0.5625 
Q 10.6875 0.296875 5.421875 2 
L 5.421875 11.28125 
Q 10.40625 8.6875 15.234375 7.390625 
Q 20.0625 6.109375 24.8125 6.109375 
Q 31.15625 6.109375 34.5625 8.28125 
Q 37.984375 10.453125 37.984375 14.40625 
Q 37.984375 18.0625 35.515625 20.015625 
Q 33.0625 21.96875 24.703125 23.78125 
L 21.578125 24.515625 
Q 13.234375 26.265625 9.515625 29.90625 
Q 5.8125 33.546875 5.8125 39.890625 
Q 5.8125 47.609375 11.28125 51.796875 
Q 16.75 56 26.8125 56 
Q 31.78125 56 36.171875 55.265625 
Q 40.578125 54.546875 44.28125 53.078125 
z
" id="DejaVuSans-115"/>
      <path id="DejaVuSans-32"/>
      <path d="M 31 75.875 
Q 24.46875 64.65625 21.28125 53.65625 
Q 18.109375 42.671875 18.109375 31.390625 
Q 18.109375 20.125 21.3125 9.0625 
Q 24.515625 -2 31 -13.1875 
L 23.1875 -13.1875 
Q 15.875 -1.703125 12.234375 9.375 
Q 8.59375 20.453125 8.59375 31.390625 
Q 8.59375 42.28125 12.203125 53.3125 
Q 15.828125 64.359375 23.1875 75.875 
z
" id="DejaVuSans-40"/>
      <path d="M 45.40625 46.390625 
L 45.40625 75.984375 
L 54.390625 75.984375 
L 54.390625 0 
L 45.40625 0 
L 45.40625 8.203125 
Q 42.578125 3.328125 38.25 0.953125 
Q 33.9375 -1.421875 27.875 -1.421875 
Q 17.96875 -1.421875 11.734375 6.484375 
Q 5.515625 14.40625 5.515625 27.296875 
Q 5.515625 40.1875 11.734375 48.09375 
Q 17.96875 56 27.875 56 
Q 33.9375 56 38.25 53.625 
Q 42.578125 51.265625 45.40625 46.390625 
z
M 14.796875 27.296875 
Q 14.796875 17.390625 18.875 11.75 
Q 22.953125 6.109375 30.078125 6.109375 
Q 37.203125 6.109375 41.296875 11.75 
Q 45.40625 17.390625 45.40625 27.296875 
Q 45.40625 37.203125 41.296875 42.84375 
Q 37.203125 48.484375 30.078125 48.484375 
Q 22.953125 48.484375 18.875 42.84375 
Q 14.796875 37.203125 14.796875 27.296875 
z
" id="DejaVuSans-100"/>
      <path d="M 56.203125 29.59375 
L 56.203125 25.203125 
L 14.890625 25.203125 
Q 15.484375 15.921875 20.484375 11.0625 
Q 25.484375 6.203125 34.421875 6.203125 
Q 39.59375 6.203125 44.453125 7.46875 
Q 49.3125 8.734375 54.109375 11.28125 
L 54.109375 2.78125 
Q 49.265625 0.734375 44.1875 -0.34375 
Q 39.109375 -1.421875 33.890625 -1.421875 
Q 20.796875 -1.421875 13.15625 6.1875 
Q 5.515625 13.8125 5.515625 26.8125 
Q 5.515625 40.234375 12.765625 48.109375 
Q 20.015625 56 32.328125 56 
Q 43.359375 56 49.78125 48.890625 
Q 56.203125 41.796875 56.203125 29.59375 
z
M 47.21875 32.234375 
Q 47.125 39.59375 43.09375 43.984375 
Q 39.0625 48.390625 32.421875 48.390625 
Q 24.90625 48.390625 20.390625 44.140625 
Q 15.875 39.890625 15.1875 32.171875 
z
" id="DejaVuSans-101"/>
      <path d="M 45.40625 27.984375 
Q 45.40625 37.75 41.375 43.109375 
Q 37.359375 48.484375 30.078125 48.484375 
Q 22.859375 48.484375 18.828125 43.109375 
Q 14.796875 37.75 14.796875 27.984375 
Q 14.796875 18.265625 18.828125 12.890625 
Q 22.859375 7.515625 30.078125 7.515625 
Q 37.359375 7.515625 41.375 12.890625 
Q 45.40625 18.265625 45.40625 27.984375 
z
M 54.390625 6.78125 
Q 54.390625 -7.171875 48.1875 -13.984375 
Q 42 -20.796875 29.203125 -20.796875 
Q 24.46875 -20.796875 20.265625 -20.09375 
Q 16.0625 -19.390625 12.109375 -17.921875 
L 12.109375 -9.1875 
Q 16.0625 -11.328125 19.921875 -12.34375 
Q 23.78125 -13.375 27.78125 -13.375 
Q 36.625 -13.375 41.015625 -8.765625 
Q 45.40625 -4.15625 45.40625 5.171875 
L 45.40625 9.625 
Q 42.625 4.78125 38.28125 2.390625 
Q 33.9375 0 27.875 0 
Q 17.828125 0 11.671875 7.65625 
Q 5.515625 15.328125 5.515625 27.984375 
Q 5.515625 40.671875 11.671875 48.328125 
Q 17.828125 56 27.875 56 
Q 33.9375 56 38.28125 53.609375 
Q 42.625 51.21875 45.40625 46.390625 
L 45.40625 54.6875 
L 54.390625 54.6875 
z
" id="DejaVuSans-103"/>
      <path d="M 8.015625 75.875 
L 15.828125 75.875 
Q 23.140625 64.359375 26.78125 53.3125 
Q 30.421875 42.28125 30.421875 31.390625 
Q 30.421875 20.453125 26.78125 9.375 
Q 23.140625 -1.703125 15.828125 -13.1875 
L 8.015625 -13.1875 
Q 14.5 -2 17.703125 9.0625 
Q 20.90625 20.125 20.90625 31.390625 
Q 20.90625 42.671875 17.703125 53.65625 
Q 14.5 64.65625 8.015625 75.875 
z
" id="DejaVuSans-41"/>
     </defs>
     <g transform="translate(73.449375 178.845469)rotate(-90)scale(0.14 -0.14)">
      <use xlink:href="#DejaVuSans-66"/>
      <use x="68.603516" xlink:href="#DejaVuSans-105"/>
      <use x="96.386719" xlink:href="#DejaVuSans-97"/>
      <use x="157.666016" xlink:href="#DejaVuSans-115"/>
      <use x="209.765625" xlink:href="#DejaVuSans-32"/>
      <use x="241.552734" xlink:href="#DejaVuSans-40"/>
      <use x="280.566406" xlink:href="#DejaVuSans-100"/>
      <use x="344.042969" xlink:href="#DejaVuSans-101"/>
      <use x="405.566406" xlink:href="#DejaVuSans-103"/>
      <use x="469.042969" xlink:href="#DejaVuSans-41"/>
     </g>
    </g>
   </g>
   <g id="line2d_13">
    <path clip-path="url(#p5f5a2610fd)" d="M 108 142.988079 
L 114.352941 136.264717 
L 120.705882 137.952026 
L 127.058824 140.380031 
L 133.411765 142.950761 
L 139.764706 151.311557 
L 146.117647 161.333302 
L 152.470588 168.166118 
L 158.823529 177.783 
L 165.176471 183.768808 
L 171.529412 189.097699 
L 177.882353 183.705911 
L 184.235294 179.483105 
L 190.588235 175.628226 
L 196.941176 163.900575 
L 203.294118 146.599159 
L 209.647059 133.356678 
L 216 117.348661 
L 222.352941 111.609456 
L 228.705882 108.493322 
L 235.058824 108.388425 
L 241.411765 106.575784 
L 247.764706 104.062195 
L 254.117647 108.300484 
L 260.470588 116.953484 
L 266.823529 129.06454 
L 273.176471 130.27353 
L 279.529412 138.879604 
L 285.882353 150.62659 
L 292.235294 158.037197 
L 298.588235 153.149033 
L 304.941176 147.618602 
" style="fill:none;stroke:#000000;stroke-linecap:square;stroke-width:1.5;"/>
   </g>
   <g id="line2d_14">
    <path clip-path="url(#p5f5a2610fd)" d="M 108 143.28 
L 304.941176 143.28 
" style="fill:none;stroke:#000000;stroke-dasharray:5.55,2.4;stroke-dashoffset:0;stroke-width:1.5;"/>
   </g>
   <g id="line2d_15">
    <path clip-path="url(#p5f5a2610fd)" d="M 206.470588 252 
L 206.470588 34.56 
" style="fill:none;stroke:#000000;stroke-dasharray:5.55,2.4;stroke-dashoffset:0;stroke-width:1.5;"/>
   </g>
   <g id="patch_3">
    <path d="M 108 252 
L 108 34.56 
" style="fill:none;stroke:#000000;stroke-linecap:square;stroke-linejoin:miter;stroke-width:0.8;"/>
   </g>
   <g id="patch_4">
    <path d="M 304.941176 252 
L 304.941176 34.56 
" style="fill:none;stroke:#000000;stroke-linecap:square;stroke-linejoin:miter;stroke-width:0.8;"/>
   </g>
   <g id="patch_5">
    <path d="M 108 252 
L 304.941176 252 
" style="fill:none;stroke:#000000;stroke-linecap:square;stroke-linejoin:miter;stroke-width:0.8;"/>
   </g>
   <g id="patch_6">
    <path d="M 108 34.56 
L 304.941176 34.56 
" style="fill:none;stroke:#000000;stroke-linecap:square;stroke-linejoin:miter;stroke-width:0.8;"/>
   </g>
  </g>
  <g id="axes_2">
   <g id="patch_7">
    <path d="M 344.329412 252 
L 541.270588 252 
L 541.270588 34.56 
L 344.329412 34.56 
z
" style="fill:#ffffff;"/>
   </g>
   <g id="PolyCollection_2">
    <defs>
     <path d="M 344.329412 -157.082341 
L 344.329412 -140.70338 
L 350.682353 -138.201221 
L 357.035294 -146.060702 
L 363.388235 -153.847412 
L 369.741176 -143.61131 
L 376.094118 -143.866222 
L 382.447059 -147.319238 
L 388.8 -153.489513 
L 395.152941 -149.156116 
L 401.505882 -139.394615 
L 407.858824 -144.100201 
L 414.211765 -138.631632 
L 420.564706 -136.929915 
L 426.917647 -136.908843 
L 433.270588 -143.45487 
L 439.623529 -137.632802 
L 445.976471 -138.778189 
L 452.329412 -142.330059 
L 458.682353 -141.414699 
L 465.035294 -142.952417 
L 471.388235 -143.316443 
L 477.741176 -147.127607 
L 484.094118 -145.508309 
L 490.447059 -154.388047 
L 496.8 -143.013535 
L 503.152941 -134.311248 
L 509.505882 -133.328574 
L 515.858824 -133.469839 
L 522.211765 -133.946573 
L 528.564706 -130.418943 
L 534.917647 -132.994933 
L 541.270588 -136.212065 
L 541.270588 -158.511782 
L 541.270588 -158.511782 
L 534.917647 -153.691912 
L 528.564706 -152.758916 
L 522.211765 -154.281035 
L 515.858824 -153.594728 
L 509.505882 -157.979856 
L 503.152941 -156.046779 
L 496.8 -170.689624 
L 490.447059 -172.528203 
L 484.094118 -159.343081 
L 477.741176 -159.696538 
L 471.388235 -157.856872 
L 465.035294 -157.639088 
L 458.682353 -156.302821 
L 452.329412 -155.34425 
L 445.976471 -154.19955 
L 439.623529 -150.192122 
L 433.270588 -156.132127 
L 426.917647 -152.537488 
L 420.564706 -153.40865 
L 414.211765 -156.650956 
L 407.858824 -162.784649 
L 401.505882 -162.337259 
L 395.152941 -168.013484 
L 388.8 -176.084578 
L 382.447059 -165.780272 
L 376.094118 -160.108661 
L 369.741176 -163.30499 
L 363.388235 -174.525636 
L 357.035294 -169.348822 
L 350.682353 -156.376277 
L 344.329412 -157.082341 
z
" id="m57613c5e81" style="stroke:#808080;stroke-opacity:0.6;"/>
    </defs>
    <g clip-path="url(#pad188ea6f7)">
     <use style="fill:#808080;fill-opacity:0.6;stroke:#808080;stroke-opacity:0.6;" x="0" xlink:href="#m57613c5e81" y="288"/>
    </g>
   </g>
   <g id="PolyCollection_3">
    <defs>
     <path d="M 344.329412 -165.282645 
L 344.329412 -144.09478 
L 350.682353 -150.263307 
L 357.035294 -152.914855 
L 363.388235 -149.849292 
L 369.741176 -133.259658 
L 376.094118 -127.114344 
L 382.447059 -128.970205 
L 388.8 -119.374687 
L 395.152941 -112.927912 
L 401.505882 -107.045005 
L 407.858824 -109.978369 
L 414.211765 -107.221465 
L 420.564706 -104.359428 
L 426.917647 -116.229542 
L 433.270588 -120.127824 
L 439.623529 -127.524368 
L 445.976471 -137.894181 
L 452.329412 -163.293826 
L 458.682353 -174.276958 
L 465.035294 -185.378249 
L 471.388235 -181.257129 
L 477.741176 -179.871805 
L 484.094118 -176.764649 
L 490.447059 -162.431402 
L 496.8 -154.367085 
L 503.152941 -147.962263 
L 509.505882 -139.853732 
L 515.858824 -130.450277 
L 522.211765 -137.602294 
L 528.564706 -138.783176 
L 534.917647 -144.270703 
L 541.270588 -143.20783 
L 541.270588 -163.717579 
L 541.270588 -163.717579 
L 534.917647 -162.829116 
L 528.564706 -154.567197 
L 522.211765 -152.477411 
L 515.858824 -152.133295 
L 509.505882 -165.680463 
L 503.152941 -169.142678 
L 496.8 -173.944126 
L 490.447059 -181.649093 
L 484.094118 -193.142011 
L 477.741176 -204.854062 
L 471.388235 -198.551129 
L 465.035294 -201.337858 
L 458.682353 -188.176349 
L 452.329412 -176.289075 
L 445.976471 -157.901365 
L 439.623529 -151.221602 
L 433.270588 -141.247446 
L 426.917647 -136.783574 
L 420.564706 -122.582802 
L 414.211765 -124.07196 
L 407.858824 -123.006839 
L 401.505882 -120.739191 
L 395.152941 -126.171721 
L 388.8 -134.219881 
L 382.447059 -148.646513 
L 376.094118 -144.018667 
L 369.741176 -154.655928 
L 363.388235 -170.265336 
L 357.035294 -173.363301 
L 350.682353 -172.502765 
L 344.329412 -165.282645 
z
" id="mb914dc1771" style="stroke:#ff0000;stroke-opacity:0.6;"/>
    </defs>
    <g clip-path="url(#pad188ea6f7)">
     <use style="fill:#ff0000;fill-opacity:0.6;stroke:#ff0000;stroke-opacity:0.6;" x="0" xlink:href="#mb914dc1771" y="288"/>
    </g>
   </g>
   <g id="matplotlib.axis_3">
    <g id="xtick_6">
     <g id="line2d_16">
      <g>
       <use style="stroke:#000000;stroke-width:0.8;" x="344.329412" xlink:href="#me0b7e9aa1f" y="252"/>
      </g>
     </g>
     <g id="text_15">
      <!-- −180 -->
      <g transform="translate(325.102381 269.637812)scale(0.14 -0.14)">
       <use xlink:href="#DejaVuSans-8722"/>
       <use x="83.789062" xlink:href="#DejaVuSans-49"/>
       <use x="147.412109" xlink:href="#DejaVuSans-56"/>
       <use x="211.035156" xlink:href="#DejaVuSans-48"/>
      </g>
     </g>
    </g>
    <g id="xtick_7">
     <g id="line2d_17">
      <g>
       <use style="stroke:#000000;stroke-width:0.8;" x="393.564706" xlink:href="#me0b7e9aa1f" y="252"/>
      </g>
     </g>
     <g id="text_16">
      <!-- −90 -->
      <g transform="translate(378.791425 269.637812)scale(0.14 -0.14)">
       <use xlink:href="#DejaVuSans-8722"/>
       <use x="83.789062" xlink:href="#DejaVuSans-57"/>
       <use x="147.412109" xlink:href="#DejaVuSans-48"/>
      </g>
     </g>
    </g>
    <g id="xtick_8">
     <g id="line2d_18">
      <g>
       <use style="stroke:#000000;stroke-width:0.8;" x="442.8" xlink:href="#me0b7e9aa1f" y="252"/>
      </g>
     </g>
     <g id="text_17">
      <!-- 0 -->
      <g transform="translate(438.34625 269.637812)scale(0.14 -0.14)">
       <use xlink:href="#DejaVuSans-48"/>
      </g>
     </g>
    </g>
    <g id="xtick_9">
     <g id="line2d_19">
      <g>
       <use style="stroke:#000000;stroke-width:0.8;" x="492.035294" xlink:href="#me0b7e9aa1f" y="252"/>
      </g>
     </g>
     <g id="text_18">
      <!-- 90 -->
      <g transform="translate(483.127794 269.637812)scale(0.14 -0.14)">
       <use xlink:href="#DejaVuSans-57"/>
       <use x="63.623047" xlink:href="#DejaVuSans-48"/>
      </g>
     </g>
    </g>
    <g id="xtick_10">
     <g id="line2d_20">
      <g>
       <use style="stroke:#000000;stroke-width:0.8;" x="541.270588" xlink:href="#me0b7e9aa1f" y="252"/>
      </g>
     </g>
     <g id="text_19">
      <!-- 180 -->
      <g transform="translate(527.909338 269.637812)scale(0.14 -0.14)">
       <use xlink:href="#DejaVuSans-49"/>
       <use x="63.623047" xlink:href="#DejaVuSans-56"/>
       <use x="127.246094" xlink:href="#DejaVuSans-48"/>
      </g>
     </g>
    </g>
    <g id="text_20">
     <!-- $\Delta\theta$ -->
     <g transform="translate(433.7 287.187187)scale(0.14 -0.14)">
      <use transform="translate(0 0.234375)" xlink:href="#DejaVuSans-916"/>
      <use transform="translate(68.408203 0.234375)" xlink:href="#DejaVuSans-Oblique-952"/>
     </g>
    </g>
   </g>
   <g id="matplotlib.axis_4"/>
   <g id="line2d_21">
    <path clip-path="url(#pad188ea6f7)" d="M 344.329412 139.10714 
L 350.682353 140.711251 
L 357.035294 130.295238 
L 363.388235 123.813476 
L 369.741176 134.54185 
L 376.094118 136.012558 
L 382.447059 131.450245 
L 388.8 123.212954 
L 395.152941 129.4152 
L 401.505882 137.134063 
L 407.858824 134.557575 
L 414.211765 140.358706 
L 420.564706 142.830718 
L 426.917647 143.276835 
L 433.270588 138.206502 
L 439.623529 144.087538 
L 445.976471 141.511131 
L 452.329412 139.162845 
L 458.682353 139.14124 
L 465.035294 137.704248 
L 471.388235 137.413342 
L 477.741176 134.587928 
L 484.094118 135.574305 
L 490.447059 124.541875 
L 496.8 131.148421 
L 503.152941 142.820987 
L 509.505882 142.345785 
L 515.858824 144.467717 
L 522.211765 143.886196 
L 528.564706 146.41107 
L 534.917647 144.656577 
L 541.270588 140.638076 
" style="fill:none;stroke:#000000;stroke-linecap:square;stroke-width:1.5;"/>
   </g>
   <g id="line2d_22">
    <path clip-path="url(#pad188ea6f7)" d="M 344.329412 133.311287 
L 350.682353 126.616964 
L 357.035294 124.860922 
L 363.388235 127.942686 
L 369.741176 144.042207 
L 376.094118 152.433495 
L 382.447059 149.191641 
L 388.8 161.202716 
L 395.152941 168.450183 
L 401.505882 174.107902 
L 407.858824 171.507396 
L 414.211765 172.353287 
L 420.564706 174.528885 
L 426.917647 161.493442 
L 433.270588 157.312365 
L 439.623529 148.627015 
L 445.976471 140.102227 
L 452.329412 118.208549 
L 458.682353 106.773347 
L 465.035294 94.641947 
L 471.388235 98.095871 
L 477.741176 95.637067 
L 484.094118 103.04667 
L 490.447059 115.959753 
L 496.8 123.844395 
L 503.152941 129.44753 
L 509.505882 135.232903 
L 515.858824 146.708214 
L 522.211765 142.960148 
L 528.564706 141.324814 
L 534.917647 134.45009 
L 541.270588 134.537295 
" style="fill:none;stroke:#000000;stroke-linecap:square;stroke-width:1.5;"/>
   </g>
   <g id="line2d_23">
    <path clip-path="url(#pad188ea6f7)" d="M 344.329412 143.28 
L 541.270588 143.28 
" style="fill:none;stroke:#000000;stroke-dasharray:5.55,2.4;stroke-dashoffset:0;stroke-width:1.5;"/>
   </g>
   <g id="line2d_24">
    <path clip-path="url(#pad188ea6f7)" d="M 442.8 252 
L 442.8 34.56 
" style="fill:none;stroke:#000000;stroke-dasharray:5.55,2.4;stroke-dashoffset:0;stroke-width:1.5;"/>
   </g>
   <g id="patch_8">
    <path d="M 344.329412 252 
L 344.329412 34.56 
" style="fill:none;stroke:#000000;stroke-linecap:square;stroke-linejoin:miter;stroke-width:0.8;"/>
   </g>
   <g id="patch_9">
    <path d="M 541.270588 252 
L 541.270588 34.56 
" style="fill:none;stroke:#000000;stroke-linecap:square;stroke-linejoin:miter;stroke-width:0.8;"/>
   </g>
   <g id="patch_10">
    <path d="M 344.329412 252 
L 541.270588 252 
" style="fill:none;stroke:#000000;stroke-linecap:square;stroke-linejoin:miter;stroke-width:0.8;"/>
   </g>
   <g id="patch_11">
    <path d="M 344.329412 34.56 
L 541.270588 34.56 
" style="fill:none;stroke:#000000;stroke-linecap:square;stroke-linejoin:miter;stroke-width:0.8;"/>
   </g>
  </g>
  <g id="axes_3">
   <g id="patch_12">
    <path d="M 580.658824 252 
L 777.6 252 
L 777.6 34.56 
L 580.658824 34.56 
z
" style="fill:#ffffff;"/>
   </g>
   <g id="PolyCollection_4">
    <defs>
     <path d="M 580.658824 -154.42203 
L 580.658824 -132.809115 
L 587.011765 -155.654601 
L 593.364706 -166.116671 
L 599.717647 -163.342798 
L 606.070588 -177.854516 
L 612.423529 -150.376632 
L 618.776471 -147.543756 
L 625.129412 -142.267428 
L 631.482353 -147.466921 
L 637.835294 -147.098686 
L 644.188235 -127.663721 
L 650.541176 -125.64844 
L 656.894118 -130.684959 
L 663.247059 -132.125946 
L 669.6 -133.883381 
L 675.952941 -133.513472 
L 682.305882 -140.215626 
L 688.658824 -144.949496 
L 695.011765 -139.714121 
L 701.364706 -137.987533 
L 707.717647 -128.908541 
L 714.070588 -118.184139 
L 720.423529 -109.836837 
L 726.776471 -94.694524 
L 733.129412 -84.065994 
L 739.482353 -70.389151 
L 745.835294 -67.315012 
L 752.188235 -67.74418 
L 758.541176 -78.176651 
L 764.894118 -71.839374 
L 771.247059 -84.49507 
L 777.6 -116.885643 
L 777.6 -138.583463 
L 777.6 -138.583463 
L 771.247059 -105.011954 
L 764.894118 -96.384739 
L 758.541176 -99.289588 
L 752.188235 -91.838117 
L 745.835294 -93.584697 
L 739.482353 -96.58994 
L 733.129412 -116.246121 
L 726.776471 -123.984022 
L 720.423529 -134.168541 
L 714.070588 -137.69854 
L 707.717647 -144.536132 
L 701.364706 -149.709054 
L 695.011765 -149.917976 
L 688.658824 -157.65255 
L 682.305882 -157.378697 
L 675.952941 -150.568563 
L 669.6 -151.031645 
L 663.247059 -147.921791 
L 656.894118 -147.258476 
L 650.541176 -140.36963 
L 644.188235 -142.819457 
L 637.835294 -165.067966 
L 631.482353 -170.396809 
L 625.129412 -167.767801 
L 618.776471 -181.979506 
L 612.423529 -189.153898 
L 606.070588 -204.083272 
L 599.717647 -187.078086 
L 593.364706 -195.320913 
L 587.011765 -183.097107 
L 580.658824 -154.42203 
z
" id="m0065c96a8d" style="stroke:#808080;stroke-opacity:0.6;"/>
    </defs>
    <g clip-path="url(#p0d28e7ef11)">
     <use style="fill:#808080;fill-opacity:0.6;stroke:#808080;stroke-opacity:0.6;" x="0" xlink:href="#m0065c96a8d" y="288"/>
    </g>
   </g>
   <g id="PolyCollection_5">
    <defs>
     <path d="M 580.658824 -157.378697 
L 580.658824 -140.215626 
L 587.011765 -144.949496 
L 593.364706 -140.528079 
L 599.717647 -139.139188 
L 606.070588 -128.908541 
L 612.423529 -118.184139 
L 618.776471 -109.836837 
L 625.129412 -94.694524 
L 631.482353 -84.065994 
L 637.835294 -70.389151 
L 644.188235 -67.315012 
L 650.541176 -67.74418 
L 656.894118 -75.258206 
L 663.247059 -77.132825 
L 669.6 -84.49507 
L 675.952941 -116.885643 
L 682.305882 -132.809115 
L 688.658824 -155.654601 
L 695.011765 -155.182643 
L 701.364706 -168.359472 
L 707.717647 -177.854516 
L 714.070588 -150.376632 
L 720.423529 -147.543756 
L 726.776471 -142.267428 
L 733.129412 -147.466921 
L 739.482353 -147.098686 
L 745.835294 -127.663721 
L 752.188235 -125.64844 
L 758.541176 -130.700653 
L 764.894118 -130.569193 
L 771.247059 -133.883381 
L 777.6 -133.513472 
L 777.6 -150.568563 
L 777.6 -150.568563 
L 771.247059 -151.031645 
L 764.894118 -148.536822 
L 758.541176 -146.406361 
L 752.188235 -140.36963 
L 745.835294 -142.819457 
L 739.482353 -165.067966 
L 733.129412 -170.396809 
L 726.776471 -167.767801 
L 720.423529 -181.979506 
L 714.070588 -189.153898 
L 707.717647 -204.083272 
L 701.364706 -195.737691 
L 695.011765 -179.503053 
L 688.658824 -183.097107 
L 682.305882 -154.42203 
L 675.952941 -138.583463 
L 669.6 -105.011954 
L 663.247059 -98.974114 
L 656.894118 -98.721739 
L 650.541176 -91.838117 
L 644.188235 -93.584697 
L 637.835294 -96.58994 
L 631.482353 -116.246121 
L 625.129412 -123.984022 
L 618.776471 -134.168541 
L 612.423529 -137.69854 
L 606.070588 -144.536132 
L 599.717647 -149.116195 
L 593.364706 -150.200602 
L 587.011765 -157.65255 
L 580.658824 -157.378697 
z
" id="m74b957f2de" style="stroke:#00bfbf;stroke-opacity:0.6;"/>
    </defs>
    <g clip-path="url(#p0d28e7ef11)">
     <use style="fill:#00bfbf;fill-opacity:0.6;stroke:#00bfbf;stroke-opacity:0.6;" x="0" xlink:href="#m74b957f2de" y="288"/>
    </g>
   </g>
   <g id="matplotlib.axis_5">
    <g id="xtick_11">
     <g id="line2d_25">
      <g>
       <use style="stroke:#000000;stroke-width:0.8;" x="580.658824" xlink:href="#me0b7e9aa1f" y="252"/>
      </g>
     </g>
     <g id="text_21">
      <!-- −180 -->
      <g transform="translate(561.431792 269.637812)scale(0.14 -0.14)">
       <use xlink:href="#DejaVuSans-8722"/>
       <use x="83.789062" xlink:href="#DejaVuSans-49"/>
       <use x="147.412109" xlink:href="#DejaVuSans-56"/>
       <use x="211.035156" xlink:href="#DejaVuSans-48"/>
      </g>
     </g>
    </g>
    <g id="xtick_12">
     <g id="line2d_26">
      <g>
       <use style="stroke:#000000;stroke-width:0.8;" x="629.894118" xlink:href="#me0b7e9aa1f" y="252"/>
      </g>
     </g>
     <g id="text_22">
      <!-- −90 -->
      <g transform="translate(615.120836 269.637812)scale(0.14 -0.14)">
       <use xlink:href="#DejaVuSans-8722"/>
       <use x="83.789062" xlink:href="#DejaVuSans-57"/>
       <use x="147.412109" xlink:href="#DejaVuSans-48"/>
      </g>
     </g>
    </g>
    <g id="xtick_13">
     <g id="line2d_27">
      <g>
       <use style="stroke:#000000;stroke-width:0.8;" x="679.129412" xlink:href="#me0b7e9aa1f" y="252"/>
      </g>
     </g>
     <g id="text_23">
      <!-- 0 -->
      <g transform="translate(674.675662 269.637812)scale(0.14 -0.14)">
       <use xlink:href="#DejaVuSans-48"/>
      </g>
     </g>
    </g>
    <g id="xtick_14">
     <g id="line2d_28">
      <g>
       <use style="stroke:#000000;stroke-width:0.8;" x="728.364706" xlink:href="#me0b7e9aa1f" y="252"/>
      </g>
     </g>
     <g id="text_24">
      <!-- 90 -->
      <g transform="translate(719.457206 269.637812)scale(0.14 -0.14)">
       <use xlink:href="#DejaVuSans-57"/>
       <use x="63.623047" xlink:href="#DejaVuSans-48"/>
      </g>
     </g>
    </g>
    <g id="xtick_15">
     <g id="line2d_29">
      <g>
       <use style="stroke:#000000;stroke-width:0.8;" x="777.6" xlink:href="#me0b7e9aa1f" y="252"/>
      </g>
     </g>
     <g id="text_25">
      <!-- 180 -->
      <g transform="translate(764.23875 269.637812)scale(0.14 -0.14)">
       <use xlink:href="#DejaVuSans-49"/>
       <use x="63.623047" xlink:href="#DejaVuSans-56"/>
       <use x="127.246094" xlink:href="#DejaVuSans-48"/>
      </g>
     </g>
    </g>
    <g id="text_26">
     <!-- $\Delta\theta$ -->
     <g transform="translate(670.029412 287.187187)scale(0.14 -0.14)">
      <use transform="translate(0 0.234375)" xlink:href="#DejaVuSans-916"/>
      <use transform="translate(68.408203 0.234375)" xlink:href="#DejaVuSans-Oblique-952"/>
     </g>
    </g>
   </g>
   <g id="matplotlib.axis_6"/>
   <g id="line2d_30">
    <path clip-path="url(#p0d28e7ef11)" d="M 580.658824 144.384427 
L 587.011765 118.624146 
L 593.364706 107.281208 
L 599.717647 112.789558 
L 606.070588 97.031106 
L 612.423529 118.234735 
L 618.776471 123.238369 
L 625.129412 132.982385 
L 631.482353 129.068135 
L 637.835294 131.916674 
L 644.188235 152.758411 
L 650.541176 154.990965 
L 656.894118 149.028282 
L 663.247059 147.976132 
L 669.6 145.542487 
L 675.952941 145.958982 
L 682.305882 139.202838 
L 688.658824 136.698977 
L 695.011765 143.183951 
L 701.364706 144.151706 
L 707.717647 151.277663 
L 714.070588 160.05866 
L 720.423529 165.997311 
L 726.776471 178.660727 
L 733.129412 187.843942 
L 739.482353 204.510455 
L 745.835294 207.550146 
L 752.188235 208.208851 
L 758.541176 199.266881 
L 764.894118 203.887944 
L 771.247059 193.246488 
L 777.6 160.265447 
" style="fill:none;stroke:#000000;stroke-linecap:square;stroke-width:1.5;"/>
   </g>
   <g id="line2d_31">
    <path clip-path="url(#p0d28e7ef11)" d="M 580.658824 139.202838 
L 587.011765 136.698977 
L 593.364706 142.63566 
L 599.717647 143.872309 
L 606.070588 151.277663 
L 612.423529 160.05866 
L 618.776471 165.997311 
L 625.129412 178.660727 
L 631.482353 187.843942 
L 637.835294 204.510455 
L 644.188235 207.550146 
L 650.541176 208.208851 
L 656.894118 201.010027 
L 663.247059 199.94653 
L 669.6 193.246488 
L 675.952941 160.265447 
L 682.305882 144.384427 
L 688.658824 118.624146 
L 695.011765 120.657152 
L 701.364706 105.951419 
L 707.717647 97.031106 
L 714.070588 118.234735 
L 720.423529 123.238369 
L 726.776471 132.982385 
L 733.129412 129.068135 
L 739.482353 131.916674 
L 745.835294 152.758411 
L 752.188235 154.990965 
L 758.541176 149.446493 
L 764.894118 148.446992 
L 771.247059 145.542487 
L 777.6 145.958982 
" style="fill:none;stroke:#000000;stroke-linecap:square;stroke-width:1.5;"/>
   </g>
   <g id="line2d_32">
    <path clip-path="url(#p0d28e7ef11)" d="M 580.658824 143.28 
L 777.6 143.28 
" style="fill:none;stroke:#000000;stroke-dasharray:5.55,2.4;stroke-dashoffset:0;stroke-width:1.5;"/>
   </g>
   <g id="line2d_33">
    <path clip-path="url(#p0d28e7ef11)" d="M 679.129412 252 
L 679.129412 34.56 
" style="fill:none;stroke:#000000;stroke-dasharray:5.55,2.4;stroke-dashoffset:0;stroke-width:1.5;"/>
   </g>
   <g id="patch_13">
    <path d="M 580.658824 252 
L 580.658824 34.56 
" style="fill:none;stroke:#000000;stroke-linecap:square;stroke-linejoin:miter;stroke-width:0.8;"/>
   </g>
   <g id="patch_14">
    <path d="M 777.6 252 
L 777.6 34.56 
" style="fill:none;stroke:#000000;stroke-linecap:square;stroke-linejoin:miter;stroke-width:0.8;"/>
   </g>
   <g id="patch_15">
    <path d="M 580.658824 252 
L 777.6 252 
" style="fill:none;stroke:#000000;stroke-linecap:square;stroke-linejoin:miter;stroke-width:0.8;"/>
   </g>
   <g id="patch_16">
    <path d="M 580.658824 34.56 
L 777.6 34.56 
" style="fill:none;stroke:#000000;stroke-linecap:square;stroke-linejoin:miter;stroke-width:0.8;"/>
   </g>
  </g>
 </g>
 <defs>
  <clipPath id="p5f5a2610fd">
   <rect height="217.44" width="196.941176" x="108" y="34.56"/>
  </clipPath>
  <clipPath id="pad188ea6f7">
   <rect height="217.44" width="196.941176" x="344.329412" y="34.56"/>
  </clipPath>
  <clipPath id="p0d28e7ef11">
   <rect height="217.44" width="196.941176" x="580.658824" y="34.56"/>
  </clipPath>
 </defs>
</svg>
