<?xml version="1.0" encoding="utf-8" standalone="no"?>
<!DOCTYPE svg PUBLIC "-//W3C//DTD SVG 1.1//EN"
  "http://www.w3.org/Graphics/SVG/1.1/DTD/svg11.dtd">
<!-- Created with matplotlib (https://matplotlib.org/) -->
<svg height="288pt" version="1.1" viewBox="0 0 864 288" width="864pt" xmlns="http://www.w3.org/2000/svg" xmlns:xlink="http://www.w3.org/1999/xlink">
 <defs>
  <style type="text/css">
*{stroke-linecap:butt;stroke-linejoin:round;}
  </style>
 </defs>
 <g id="figure_1">
  <g id="patch_1">
   <path d="M 0 288 
L 864 288 
L 864 0 
L 0 0 
z
" style="fill:#ffffff;"/>
  </g>
  <g id="axes_1">
   <g id="patch_2">
    <path d="M 60.745 232.88 
L 274.126667 232.88 
L 274.126667 35.12 
L 60.745 35.12 
z
" style="fill:#ffffff;"/>
   </g>
   <g id="PolyCollection_1">
    <defs>
     <path d="M 60.745 -165.158522 
L 60.745 -143.716962 
L 67.62828 -162.96362 
L 74.511559 -160.040743 
L 81.394839 -151.755616 
L 88.278118 -154.808056 
L 95.161398 -141.743691 
L 102.044677 -142.459731 
L 108.927957 -130.273694 
L 115.811237 -139.582811 
L 122.694516 -140.687265 
L 129.577796 -133.830534 
L 136.461075 -129.879558 
L 143.344355 -137.958631 
L 150.227634 -144.85605 
L 157.110914 -149.216033 
L 163.994194 -150.894352 
L 170.877473 -152.453935 
L 177.760753 -154.159358 
L 184.644032 -143.490598 
L 191.527312 -142.913136 
L 198.410591 -142.919132 
L 205.293871 -140.448149 
L 212.177151 -144.692298 
L 219.06043 -158.683831 
L 225.94371 -166.902979 
L 232.826989 -155.384851 
L 239.710269 -143.479329 
L 246.593548 -132.523755 
L 253.476828 -127.536374 
L 260.360108 -113.292193 
L 267.243387 -111.783182 
L 274.126667 -143.725039 
L 274.126667 -161.356133 
L 274.126667 -161.356133 
L 267.243387 -134.603692 
L 260.360108 -136.969373 
L 253.476828 -147.802138 
L 246.593548 -153.509443 
L 239.710269 -163.05292 
L 232.826989 -176.394792 
L 225.94371 -187.337993 
L 219.06043 -183.171091 
L 212.177151 -174.493189 
L 205.293871 -169.620573 
L 198.410591 -172.881638 
L 191.527312 -176.587047 
L 184.644032 -177.310524 
L 177.760753 -184.031785 
L 170.877473 -178.446817 
L 163.994194 -173.672486 
L 157.110914 -174.862153 
L 150.227634 -170.996388 
L 143.344355 -168.107023 
L 136.461075 -160.535878 
L 129.577796 -166.322924 
L 122.694516 -171.933046 
L 115.811237 -168.835184 
L 108.927957 -153.73564 
L 102.044677 -168.191558 
L 95.161398 -168.372357 
L 88.278118 -178.867194 
L 81.394839 -171.135876 
L 74.511559 -182.728722 
L 67.62828 -186.107183 
L 60.745 -165.158522 
z
" id="m7c74cc353b" style="stroke:#a6cee3;stroke-opacity:0.6;"/>
    </defs>
    <g clip-path="url(#p35902faa5b)">
     <use style="fill:#a6cee3;fill-opacity:0.6;stroke:#a6cee3;stroke-opacity:0.6;" x="0" xlink:href="#m7c74cc353b" y="288"/>
    </g>
   </g>
   <g id="PolyCollection_2">
    <defs>
     <path d="M 60.745 -164.9747 
L 60.745 -139.58718 
L 67.62828 -138.266833 
L 74.511559 -147.217301 
L 81.394839 -142.11544 
L 88.278118 -130.728462 
L 95.161398 -130.160644 
L 102.044677 -115.615686 
L 108.927957 -112.306546 
L 115.811237 -106.530492 
L 122.694516 -108.02596 
L 129.577796 -103.652227 
L 136.461075 -94.634981 
L 143.344355 -105.175538 
L 150.227634 -102.456614 
L 157.110914 -106.742013 
L 163.994194 -105.771527 
L 170.877473 -118.270618 
L 177.760753 -145.486109 
L 184.644032 -160.57148 
L 191.527312 -174.115729 
L 198.410591 -183.76004 
L 205.293871 -195.294074 
L 212.177151 -192.490364 
L 219.06043 -175.459225 
L 225.94371 -157.484595 
L 232.826989 -160.320727 
L 239.710269 -162.923289 
L 246.593548 -157.881948 
L 253.476828 -147.906312 
L 260.360108 -149.771814 
L 267.243387 -160.6472 
L 274.126667 -147.687537 
L 274.126667 -171.631737 
L 274.126667 -171.631737 
L 267.243387 -187.184294 
L 260.360108 -175.743092 
L 253.476828 -173.309097 
L 246.593548 -186.574518 
L 239.710269 -194.036223 
L 232.826989 -192.420436 
L 225.94371 -192.898958 
L 219.06043 -209.393466 
L 212.177151 -221.455431 
L 205.293871 -219.981659 
L 198.410591 -209.294612 
L 191.527312 -201.206442 
L 184.644032 -185.706403 
L 177.760753 -172.455722 
L 170.877473 -144.174799 
L 163.994194 -131.859251 
L 157.110914 -129.691513 
L 150.227634 -132.305853 
L 143.344355 -140.95251 
L 136.461075 -129.632108 
L 129.577796 -132.285964 
L 122.694516 -141.739091 
L 115.811237 -139.263267 
L 108.927957 -141.055116 
L 102.044677 -138.986265 
L 95.161398 -151.204385 
L 88.278118 -150.02819 
L 81.394839 -156.053658 
L 74.511559 -160.682294 
L 67.62828 -157.802392 
L 60.745 -164.9747 
z
" id="m947f2fca8e" style="stroke:#1f78b4;stroke-opacity:0.6;"/>
    </defs>
    <g clip-path="url(#p35902faa5b)">
     <use style="fill:#1f78b4;fill-opacity:0.6;stroke:#1f78b4;stroke-opacity:0.6;" x="0" xlink:href="#m947f2fca8e" y="288"/>
    </g>
   </g>
   <g id="matplotlib.axis_1">
    <g id="xtick_1">
     <g id="line2d_1">
      <defs>
       <path d="M 0 0 
L 0 3.5 
" id="m13f503a306" style="stroke:#000000;stroke-width:0.8;"/>
      </defs>
      <g>
       <use style="stroke:#000000;stroke-width:0.8;" x="60.745" xlink:href="#m13f503a306" y="232.88"/>
      </g>
     </g>
     <g id="text_1">
      <!-- −180 -->
      <defs>
       <path d="M 10.59375 35.5 
L 73.1875 35.5 
L 73.1875 27.203125 
L 10.59375 27.203125 
z
" id="DejaVuSans-8722"/>
       <path d="M 12.40625 8.296875 
L 28.515625 8.296875 
L 28.515625 63.921875 
L 10.984375 60.40625 
L 10.984375 69.390625 
L 28.421875 72.90625 
L 38.28125 72.90625 
L 38.28125 8.296875 
L 54.390625 8.296875 
L 54.390625 0 
L 12.40625 0 
z
" id="DejaVuSans-49"/>
       <path d="M 31.78125 34.625 
Q 24.75 34.625 20.71875 30.859375 
Q 16.703125 27.09375 16.703125 20.515625 
Q 16.703125 13.921875 20.71875 10.15625 
Q 24.75 6.390625 31.78125 6.390625 
Q 38.8125 6.390625 42.859375 10.171875 
Q 46.921875 13.96875 46.921875 20.515625 
Q 46.921875 27.09375 42.890625 30.859375 
Q 38.875 34.625 31.78125 34.625 
z
M 21.921875 38.8125 
Q 15.578125 40.375 12.03125 44.71875 
Q 8.5 49.078125 8.5 55.328125 
Q 8.5 64.0625 14.71875 69.140625 
Q 20.953125 74.21875 31.78125 74.21875 
Q 42.671875 74.21875 48.875 69.140625 
Q 55.078125 64.0625 55.078125 55.328125 
Q 55.078125 49.078125 51.53125 44.71875 
Q 48 40.375 41.703125 38.8125 
Q 48.828125 37.15625 52.796875 32.3125 
Q 56.78125 27.484375 56.78125 20.515625 
Q 56.78125 9.90625 50.3125 4.234375 
Q 43.84375 -1.421875 31.78125 -1.421875 
Q 19.734375 -1.421875 13.25 4.234375 
Q 6.78125 9.90625 6.78125 20.515625 
Q 6.78125 27.484375 10.78125 32.3125 
Q 14.796875 37.15625 21.921875 38.8125 
z
M 18.3125 54.390625 
Q 18.3125 48.734375 21.84375 45.5625 
Q 25.390625 42.390625 31.78125 42.390625 
Q 38.140625 42.390625 41.71875 45.5625 
Q 45.3125 48.734375 45.3125 54.390625 
Q 45.3125 60.0625 41.71875 63.234375 
Q 38.140625 66.40625 31.78125 66.40625 
Q 25.390625 66.40625 21.84375 63.234375 
Q 18.3125 60.0625 18.3125 54.390625 
z
" id="DejaVuSans-56"/>
       <path d="M 31.78125 66.40625 
Q 24.171875 66.40625 20.328125 58.90625 
Q 16.5 51.421875 16.5 36.375 
Q 16.5 21.390625 20.328125 13.890625 
Q 24.171875 6.390625 31.78125 6.390625 
Q 39.453125 6.390625 43.28125 13.890625 
Q 47.125 21.390625 47.125 36.375 
Q 47.125 51.421875 43.28125 58.90625 
Q 39.453125 66.40625 31.78125 66.40625 
z
M 31.78125 74.21875 
Q 44.046875 74.21875 50.515625 64.515625 
Q 56.984375 54.828125 56.984375 36.375 
Q 56.984375 17.96875 50.515625 8.265625 
Q 44.046875 -1.421875 31.78125 -1.421875 
Q 19.53125 -1.421875 13.0625 8.265625 
Q 6.59375 17.96875 6.59375 36.375 
Q 6.59375 54.828125 13.0625 64.515625 
Q 19.53125 74.21875 31.78125 74.21875 
z
" id="DejaVuSans-48"/>
      </defs>
      <g transform="translate(41.517969 250.517813)scale(0.14 -0.14)">
       <use xlink:href="#DejaVuSans-8722"/>
       <use x="83.789062" xlink:href="#DejaVuSans-49"/>
       <use x="147.412109" xlink:href="#DejaVuSans-56"/>
       <use x="211.035156" xlink:href="#DejaVuSans-48"/>
      </g>
     </g>
    </g>
    <g id="xtick_2">
     <g id="line2d_2">
      <g>
       <use style="stroke:#000000;stroke-width:0.8;" x="114.090417" xlink:href="#m13f503a306" y="232.88"/>
      </g>
     </g>
     <g id="text_2">
      <!-- −90 -->
      <defs>
       <path d="M 10.984375 1.515625 
L 10.984375 10.5 
Q 14.703125 8.734375 18.5 7.8125 
Q 22.3125 6.890625 25.984375 6.890625 
Q 35.75 6.890625 40.890625 13.453125 
Q 46.046875 20.015625 46.78125 33.40625 
Q 43.953125 29.203125 39.59375 26.953125 
Q 35.25 24.703125 29.984375 24.703125 
Q 19.046875 24.703125 12.671875 31.3125 
Q 6.296875 37.9375 6.296875 49.421875 
Q 6.296875 60.640625 12.9375 67.421875 
Q 19.578125 74.21875 30.609375 74.21875 
Q 43.265625 74.21875 49.921875 64.515625 
Q 56.59375 54.828125 56.59375 36.375 
Q 56.59375 19.140625 48.40625 8.859375 
Q 40.234375 -1.421875 26.421875 -1.421875 
Q 22.703125 -1.421875 18.890625 -0.6875 
Q 15.09375 0.046875 10.984375 1.515625 
z
M 30.609375 32.421875 
Q 37.25 32.421875 41.125 36.953125 
Q 45.015625 41.5 45.015625 49.421875 
Q 45.015625 57.28125 41.125 61.84375 
Q 37.25 66.40625 30.609375 66.40625 
Q 23.96875 66.40625 20.09375 61.84375 
Q 16.21875 57.28125 16.21875 49.421875 
Q 16.21875 41.5 20.09375 36.953125 
Q 23.96875 32.421875 30.609375 32.421875 
z
" id="DejaVuSans-57"/>
      </defs>
      <g transform="translate(99.317135 250.517813)scale(0.14 -0.14)">
       <use xlink:href="#DejaVuSans-8722"/>
       <use x="83.789062" xlink:href="#DejaVuSans-57"/>
       <use x="147.412109" xlink:href="#DejaVuSans-48"/>
      </g>
     </g>
    </g>
    <g id="xtick_3">
     <g id="line2d_3">
      <g>
       <use style="stroke:#000000;stroke-width:0.8;" x="167.435833" xlink:href="#m13f503a306" y="232.88"/>
      </g>
     </g>
     <g id="text_3">
      <!-- 0 -->
      <g transform="translate(162.982083 250.517813)scale(0.14 -0.14)">
       <use xlink:href="#DejaVuSans-48"/>
      </g>
     </g>
    </g>
    <g id="xtick_4">
     <g id="line2d_4">
      <g>
       <use style="stroke:#000000;stroke-width:0.8;" x="220.78125" xlink:href="#m13f503a306" y="232.88"/>
      </g>
     </g>
     <g id="text_4">
      <!-- 90 -->
      <g transform="translate(211.87375 250.517813)scale(0.14 -0.14)">
       <use xlink:href="#DejaVuSans-57"/>
       <use x="63.623047" xlink:href="#DejaVuSans-48"/>
      </g>
     </g>
    </g>
    <g id="xtick_5">
     <g id="line2d_5">
      <g>
       <use style="stroke:#000000;stroke-width:0.8;" x="274.126667" xlink:href="#m13f503a306" y="232.88"/>
      </g>
     </g>
     <g id="text_5">
      <!-- 180 -->
      <g transform="translate(260.765417 250.517813)scale(0.14 -0.14)">
       <use xlink:href="#DejaVuSans-49"/>
       <use x="63.623047" xlink:href="#DejaVuSans-56"/>
       <use x="127.246094" xlink:href="#DejaVuSans-48"/>
      </g>
     </g>
    </g>
    <g id="text_6">
     <!-- $\Delta\theta$ -->
     <defs>
      <path d="M 34.1875 63.1875 
L 14.15625 8.203125 
L 54.25 8.203125 
z
M 0.78125 0 
L 28.609375 72.90625 
L 39.796875 72.90625 
L 67.578125 0 
z
" id="DejaVuSans-916"/>
      <path d="M 45.515625 34.671875 
L 14.453125 34.671875 
Q 12.359375 20.0625 14.5 13.875 
Q 17.1875 6.25 24.46875 6.25 
Q 31.78125 6.25 37.359375 13.921875 
Q 42.234375 20.65625 45.515625 34.671875 
z
M 47.015625 42.96875 
Q 48.34375 56.84375 46.625 61.71875 
Q 43.953125 69.4375 36.765625 69.4375 
Q 29.296875 69.4375 23.828125 61.8125 
Q 19.53125 55.671875 16.15625 42.96875 
z
M 38.1875 76.765625 
Q 49.90625 76.765625 54.59375 66.40625 
Q 59.28125 56.109375 55.71875 37.84375 
Q 52.203125 19.625 43.453125 9.28125 
Q 34.765625 -1.125 23.046875 -1.125 
Q 11.28125 -1.125 6.640625 9.28125 
Q 2 19.625 5.515625 37.84375 
Q 9.078125 56.109375 17.71875 66.40625 
Q 26.421875 76.765625 38.1875 76.765625 
z
" id="DejaVuSans-Oblique-952"/>
     </defs>
     <g transform="translate(158.335833 268.067188)scale(0.14 -0.14)">
      <use transform="translate(0 0.234375)" xlink:href="#DejaVuSans-916"/>
      <use transform="translate(68.408203 0.234375)" xlink:href="#DejaVuSans-Oblique-952"/>
     </g>
    </g>
   </g>
   <g id="matplotlib.axis_2">
    <g id="ytick_1">
     <g id="line2d_6">
      <defs>
       <path d="M 0 0 
L -3.5 0 
" id="me80ddfc344" style="stroke:#000000;stroke-width:0.8;"/>
      </defs>
      <g>
       <use style="stroke:#000000;stroke-width:0.8;" x="60.745" xlink:href="#me80ddfc344" y="232.88"/>
      </g>
     </g>
     <g id="text_7">
      <!-- −3 -->
      <defs>
       <path d="M 40.578125 39.3125 
Q 47.65625 37.796875 51.625 33 
Q 55.609375 28.21875 55.609375 21.1875 
Q 55.609375 10.40625 48.1875 4.484375 
Q 40.765625 -1.421875 27.09375 -1.421875 
Q 22.515625 -1.421875 17.65625 -0.515625 
Q 12.796875 0.390625 7.625 2.203125 
L 7.625 11.71875 
Q 11.71875 9.328125 16.59375 8.109375 
Q 21.484375 6.890625 26.8125 6.890625 
Q 36.078125 6.890625 40.9375 10.546875 
Q 45.796875 14.203125 45.796875 21.1875 
Q 45.796875 27.640625 41.28125 31.265625 
Q 36.765625 34.90625 28.71875 34.90625 
L 20.21875 34.90625 
L 20.21875 43.015625 
L 29.109375 43.015625 
Q 36.375 43.015625 40.234375 45.921875 
Q 44.09375 48.828125 44.09375 54.296875 
Q 44.09375 59.90625 40.109375 62.90625 
Q 36.140625 65.921875 28.71875 65.921875 
Q 24.65625 65.921875 20.015625 65.03125 
Q 15.375 64.15625 9.8125 62.3125 
L 9.8125 71.09375 
Q 15.4375 72.65625 20.34375 73.4375 
Q 25.25 74.21875 29.59375 74.21875 
Q 40.828125 74.21875 47.359375 69.109375 
Q 53.90625 64.015625 53.90625 55.328125 
Q 53.90625 49.265625 50.4375 45.09375 
Q 46.96875 40.921875 40.578125 39.3125 
z
" id="DejaVuSans-51"/>
      </defs>
      <g transform="translate(33.105938 238.198906)scale(0.14 -0.14)">
       <use xlink:href="#DejaVuSans-8722"/>
       <use x="83.789062" xlink:href="#DejaVuSans-51"/>
      </g>
     </g>
    </g>
    <g id="ytick_2">
     <g id="line2d_7">
      <g>
       <use style="stroke:#000000;stroke-width:0.8;" x="60.745" xlink:href="#me80ddfc344" y="199.92"/>
      </g>
     </g>
     <g id="text_8">
      <!-- −2 -->
      <defs>
       <path d="M 19.1875 8.296875 
L 53.609375 8.296875 
L 53.609375 0 
L 7.328125 0 
L 7.328125 8.296875 
Q 12.9375 14.109375 22.625 23.890625 
Q 32.328125 33.6875 34.8125 36.53125 
Q 39.546875 41.84375 41.421875 45.53125 
Q 43.3125 49.21875 43.3125 52.78125 
Q 43.3125 58.59375 39.234375 62.25 
Q 35.15625 65.921875 28.609375 65.921875 
Q 23.96875 65.921875 18.8125 64.3125 
Q 13.671875 62.703125 7.8125 59.421875 
L 7.8125 69.390625 
Q 13.765625 71.78125 18.9375 73 
Q 24.125 74.21875 28.421875 74.21875 
Q 39.75 74.21875 46.484375 68.546875 
Q 53.21875 62.890625 53.21875 53.421875 
Q 53.21875 48.921875 51.53125 44.890625 
Q 49.859375 40.875 45.40625 35.40625 
Q 44.1875 33.984375 37.640625 27.21875 
Q 31.109375 20.453125 19.1875 8.296875 
z
" id="DejaVuSans-50"/>
      </defs>
      <g transform="translate(33.105938 205.238906)scale(0.14 -0.14)">
       <use xlink:href="#DejaVuSans-8722"/>
       <use x="83.789062" xlink:href="#DejaVuSans-50"/>
      </g>
     </g>
    </g>
    <g id="ytick_3">
     <g id="line2d_8">
      <g>
       <use style="stroke:#000000;stroke-width:0.8;" x="60.745" xlink:href="#me80ddfc344" y="166.96"/>
      </g>
     </g>
     <g id="text_9">
      <!-- −1 -->
      <g transform="translate(33.105938 172.278906)scale(0.14 -0.14)">
       <use xlink:href="#DejaVuSans-8722"/>
       <use x="83.789062" xlink:href="#DejaVuSans-49"/>
      </g>
     </g>
    </g>
    <g id="ytick_4">
     <g id="line2d_9">
      <g>
       <use style="stroke:#000000;stroke-width:0.8;" x="60.745" xlink:href="#me80ddfc344" y="134"/>
      </g>
     </g>
     <g id="text_10">
      <!-- 0 -->
      <g transform="translate(44.8375 139.318906)scale(0.14 -0.14)">
       <use xlink:href="#DejaVuSans-48"/>
      </g>
     </g>
    </g>
    <g id="ytick_5">
     <g id="line2d_10">
      <g>
       <use style="stroke:#000000;stroke-width:0.8;" x="60.745" xlink:href="#me80ddfc344" y="101.04"/>
      </g>
     </g>
     <g id="text_11">
      <!-- 1 -->
      <g transform="translate(44.8375 106.358906)scale(0.14 -0.14)">
       <use xlink:href="#DejaVuSans-49"/>
      </g>
     </g>
    </g>
    <g id="ytick_6">
     <g id="line2d_11">
      <g>
       <use style="stroke:#000000;stroke-width:0.8;" x="60.745" xlink:href="#me80ddfc344" y="68.08"/>
      </g>
     </g>
     <g id="text_12">
      <!-- 2 -->
      <g transform="translate(44.8375 73.398906)scale(0.14 -0.14)">
       <use xlink:href="#DejaVuSans-50"/>
      </g>
     </g>
    </g>
    <g id="ytick_7">
     <g id="line2d_12">
      <g>
       <use style="stroke:#000000;stroke-width:0.8;" x="60.745" xlink:href="#me80ddfc344" y="35.12"/>
      </g>
     </g>
     <g id="text_13">
      <!-- 3 -->
      <g transform="translate(44.8375 40.438906)scale(0.14 -0.14)">
       <use xlink:href="#DejaVuSans-51"/>
      </g>
     </g>
    </g>
    <g id="text_14">
     <!-- Bias (deg) -->
     <defs>
      <path d="M 19.671875 34.8125 
L 19.671875 8.109375 
L 35.5 8.109375 
Q 43.453125 8.109375 47.28125 11.40625 
Q 51.125 14.703125 51.125 21.484375 
Q 51.125 28.328125 47.28125 31.5625 
Q 43.453125 34.8125 35.5 34.8125 
z
M 19.671875 64.796875 
L 19.671875 42.828125 
L 34.28125 42.828125 
Q 41.5 42.828125 45.03125 45.53125 
Q 48.578125 48.25 48.578125 53.8125 
Q 48.578125 59.328125 45.03125 62.0625 
Q 41.5 64.796875 34.28125 64.796875 
z
M 9.8125 72.90625 
L 35.015625 72.90625 
Q 46.296875 72.90625 52.390625 68.21875 
Q 58.5 63.53125 58.5 54.890625 
Q 58.5 48.1875 55.375 44.234375 
Q 52.25 40.28125 46.1875 39.3125 
Q 53.46875 37.75 57.5 32.78125 
Q 61.53125 27.828125 61.53125 20.40625 
Q 61.53125 10.640625 54.890625 5.3125 
Q 48.25 0 35.984375 0 
L 9.8125 0 
z
" id="DejaVuSans-66"/>
      <path d="M 9.421875 54.6875 
L 18.40625 54.6875 
L 18.40625 0 
L 9.421875 0 
z
M 9.421875 75.984375 
L 18.40625 75.984375 
L 18.40625 64.59375 
L 9.421875 64.59375 
z
" id="DejaVuSans-105"/>
      <path d="M 34.28125 27.484375 
Q 23.390625 27.484375 19.1875 25 
Q 14.984375 22.515625 14.984375 16.5 
Q 14.984375 11.71875 18.140625 8.90625 
Q 21.296875 6.109375 26.703125 6.109375 
Q 34.1875 6.109375 38.703125 11.40625 
Q 43.21875 16.703125 43.21875 25.484375 
L 43.21875 27.484375 
z
M 52.203125 31.203125 
L 52.203125 0 
L 43.21875 0 
L 43.21875 8.296875 
Q 40.140625 3.328125 35.546875 0.953125 
Q 30.953125 -1.421875 24.3125 -1.421875 
Q 15.921875 -1.421875 10.953125 3.296875 
Q 6 8.015625 6 15.921875 
Q 6 25.140625 12.171875 29.828125 
Q 18.359375 34.515625 30.609375 34.515625 
L 43.21875 34.515625 
L 43.21875 35.40625 
Q 43.21875 41.609375 39.140625 45 
Q 35.0625 48.390625 27.6875 48.390625 
Q 23 48.390625 18.546875 47.265625 
Q 14.109375 46.140625 10.015625 43.890625 
L 10.015625 52.203125 
Q 14.9375 54.109375 19.578125 55.046875 
Q 24.21875 56 28.609375 56 
Q 40.484375 56 46.34375 49.84375 
Q 52.203125 43.703125 52.203125 31.203125 
z
" id="DejaVuSans-97"/>
      <path d="M 44.28125 53.078125 
L 44.28125 44.578125 
Q 40.484375 46.53125 36.375 47.5 
Q 32.28125 48.484375 27.875 48.484375 
Q 21.1875 48.484375 17.84375 46.4375 
Q 14.5 44.390625 14.5 40.28125 
Q 14.5 37.15625 16.890625 35.375 
Q 19.28125 33.59375 26.515625 31.984375 
L 29.59375 31.296875 
Q 39.15625 29.25 43.1875 25.515625 
Q 47.21875 21.78125 47.21875 15.09375 
Q 47.21875 7.46875 41.1875 3.015625 
Q 35.15625 -1.421875 24.609375 -1.421875 
Q 20.21875 -1.421875 15.453125 -0.5625 
Q 10.6875 0.296875 5.421875 2 
L 5.421875 11.28125 
Q 10.40625 8.6875 15.234375 7.390625 
Q 20.0625 6.109375 24.8125 6.109375 
Q 31.15625 6.109375 34.5625 8.28125 
Q 37.984375 10.453125 37.984375 14.40625 
Q 37.984375 18.0625 35.515625 20.015625 
Q 33.0625 21.96875 24.703125 23.78125 
L 21.578125 24.515625 
Q 13.234375 26.265625 9.515625 29.90625 
Q 5.8125 33.546875 5.8125 39.890625 
Q 5.8125 47.609375 11.28125 51.796875 
Q 16.75 56 26.8125 56 
Q 31.78125 56 36.171875 55.265625 
Q 40.578125 54.546875 44.28125 53.078125 
z
" id="DejaVuSans-115"/>
      <path id="DejaVuSans-32"/>
      <path d="M 31 75.875 
Q 24.46875 64.65625 21.28125 53.65625 
Q 18.109375 42.671875 18.109375 31.390625 
Q 18.109375 20.125 21.3125 9.0625 
Q 24.515625 -2 31 -13.1875 
L 23.1875 -13.1875 
Q 15.875 -1.703125 12.234375 9.375 
Q 8.59375 20.453125 8.59375 31.390625 
Q 8.59375 42.28125 12.203125 53.3125 
Q 15.828125 64.359375 23.1875 75.875 
z
" id="DejaVuSans-40"/>
      <path d="M 45.40625 46.390625 
L 45.40625 75.984375 
L 54.390625 75.984375 
L 54.390625 0 
L 45.40625 0 
L 45.40625 8.203125 
Q 42.578125 3.328125 38.25 0.953125 
Q 33.9375 -1.421875 27.875 -1.421875 
Q 17.96875 -1.421875 11.734375 6.484375 
Q 5.515625 14.40625 5.515625 27.296875 
Q 5.515625 40.1875 11.734375 48.09375 
Q 17.96875 56 27.875 56 
Q 33.9375 56 38.25 53.625 
Q 42.578125 51.265625 45.40625 46.390625 
z
M 14.796875 27.296875 
Q 14.796875 17.390625 18.875 11.75 
Q 22.953125 6.109375 30.078125 6.109375 
Q 37.203125 6.109375 41.296875 11.75 
Q 45.40625 17.390625 45.40625 27.296875 
Q 45.40625 37.203125 41.296875 42.84375 
Q 37.203125 48.484375 30.078125 48.484375 
Q 22.953125 48.484375 18.875 42.84375 
Q 14.796875 37.203125 14.796875 27.296875 
z
" id="DejaVuSans-100"/>
      <path d="M 56.203125 29.59375 
L 56.203125 25.203125 
L 14.890625 25.203125 
Q 15.484375 15.921875 20.484375 11.0625 
Q 25.484375 6.203125 34.421875 6.203125 
Q 39.59375 6.203125 44.453125 7.46875 
Q 49.3125 8.734375 54.109375 11.28125 
L 54.109375 2.78125 
Q 49.265625 0.734375 44.1875 -0.34375 
Q 39.109375 -1.421875 33.890625 -1.421875 
Q 20.796875 -1.421875 13.15625 6.1875 
Q 5.515625 13.8125 5.515625 26.8125 
Q 5.515625 40.234375 12.765625 48.109375 
Q 20.015625 56 32.328125 56 
Q 43.359375 56 49.78125 48.890625 
Q 56.203125 41.796875 56.203125 29.59375 
z
M 47.21875 32.234375 
Q 47.125 39.59375 43.09375 43.984375 
Q 39.0625 48.390625 32.421875 48.390625 
Q 24.90625 48.390625 20.390625 44.140625 
Q 15.875 39.890625 15.1875 32.171875 
z
" id="DejaVuSans-101"/>
      <path d="M 45.40625 27.984375 
Q 45.40625 37.75 41.375 43.109375 
Q 37.359375 48.484375 30.078125 48.484375 
Q 22.859375 48.484375 18.828125 43.109375 
Q 14.796875 37.75 14.796875 27.984375 
Q 14.796875 18.265625 18.828125 12.890625 
Q 22.859375 7.515625 30.078125 7.515625 
Q 37.359375 7.515625 41.375 12.890625 
Q 45.40625 18.265625 45.40625 27.984375 
z
M 54.390625 6.78125 
Q 54.390625 -7.171875 48.1875 -13.984375 
Q 42 -20.796875 29.203125 -20.796875 
Q 24.46875 -20.796875 20.265625 -20.09375 
Q 16.0625 -19.390625 12.109375 -17.921875 
L 12.109375 -9.1875 
Q 16.0625 -11.328125 19.921875 -12.34375 
Q 23.78125 -13.375 27.78125 -13.375 
Q 36.625 -13.375 41.015625 -8.765625 
Q 45.40625 -4.15625 45.40625 5.171875 
L 45.40625 9.625 
Q 42.625 4.78125 38.28125 2.390625 
Q 33.9375 0 27.875 0 
Q 17.828125 0 11.671875 7.65625 
Q 5.515625 15.328125 5.515625 27.984375 
Q 5.515625 40.671875 11.671875 48.328125 
Q 17.828125 56 27.875 56 
Q 33.9375 56 38.28125 53.609375 
Q 42.625 51.21875 45.40625 46.390625 
L 45.40625 54.6875 
L 54.390625 54.6875 
z
" id="DejaVuSans-103"/>
      <path d="M 8.015625 75.875 
L 15.828125 75.875 
Q 23.140625 64.359375 26.78125 53.3125 
Q 30.421875 42.28125 30.421875 31.390625 
Q 30.421875 20.453125 26.78125 9.375 
Q 23.140625 -1.703125 15.828125 -13.1875 
L 8.015625 -13.1875 
Q 14.5 -2 17.703125 9.0625 
Q 20.90625 20.125 20.90625 31.390625 
Q 20.90625 42.671875 17.703125 53.65625 
Q 14.5 64.65625 8.015625 75.875 
z
" id="DejaVuSans-41"/>
     </defs>
     <g transform="translate(26.194375 169.565469)rotate(-90)scale(0.14 -0.14)">
      <use xlink:href="#DejaVuSans-66"/>
      <use x="68.603516" xlink:href="#DejaVuSans-105"/>
      <use x="96.386719" xlink:href="#DejaVuSans-97"/>
      <use x="157.666016" xlink:href="#DejaVuSans-115"/>
      <use x="209.765625" xlink:href="#DejaVuSans-32"/>
      <use x="241.552734" xlink:href="#DejaVuSans-40"/>
      <use x="280.566406" xlink:href="#DejaVuSans-100"/>
      <use x="344.042969" xlink:href="#DejaVuSans-101"/>
      <use x="405.566406" xlink:href="#DejaVuSans-103"/>
      <use x="469.042969" xlink:href="#DejaVuSans-41"/>
     </g>
    </g>
   </g>
   <g id="line2d_13">
    <path clip-path="url(#p35902faa5b)" d="M 60.745 138.125132 
L 67.62828 120.779622 
L 74.511559 124.77526 
L 81.394839 131.523904 
L 88.278118 131.411892 
L 95.161398 142.475497 
L 102.044677 142.779926 
L 108.927957 158.754349 
L 115.811237 150.424685 
L 122.694516 145.658431 
L 129.577796 141.556733 
L 136.461075 149.059548 
L 143.344355 143.465518 
L 150.227634 135.671761 
L 157.110914 129.823489 
L 163.994194 126.970773 
L 170.877473 120.893203 
L 177.760753 114.074959 
L 184.644032 119.32507 
L 191.527312 116.288536 
L 198.410591 117.531407 
L 205.293871 124.117754 
L 212.177151 124.059561 
L 219.06043 119.8554 
L 225.94371 117.938533 
L 232.826989 125.245167 
L 239.710269 133.990557 
L 246.593548 137.89826 
L 253.476828 146.705731 
L 260.360108 155.572497 
L 267.243387 159.167162 
L 274.126667 140.08663 
" style="fill:none;stroke:#8cb4ca;stroke-linecap:square;stroke-width:1.5;"/>
   </g>
   <g id="line2d_14">
    <path clip-path="url(#p35902faa5b)" d="M 60.745 134 
L 274.126667 134 
" style="fill:none;stroke:#000000;stroke-dasharray:5.55,2.4;stroke-dashoffset:0;stroke-width:1.5;"/>
   </g>
   <g id="line2d_15">
    <path clip-path="url(#p35902faa5b)" d="M 167.435833 232.88 
L 167.435833 35.12 
" style="fill:none;stroke:#000000;stroke-dasharray:5.55,2.4;stroke-dashoffset:0;stroke-width:1.5;"/>
   </g>
   <g id="line2d_16">
    <path clip-path="url(#p35902faa5b)" d="M 60.745 142.629958 
L 67.62828 147.160614 
L 74.511559 134.208608 
L 81.394839 142.396762 
L 88.278118 149.307135 
L 95.161398 154.280098 
L 102.044677 169.700141 
L 108.927957 170.051127 
L 115.811237 179.681211 
L 122.694516 173.696236 
L 129.577796 176.967982 
L 136.461075 180.473258 
L 143.344355 167.104038 
L 150.227634 169.860232 
L 157.110914 162.155187 
L 163.994194 152.48771 
L 170.877473 143.418126 
L 177.760753 119.20841 
L 184.644032 104.10275 
L 191.527312 89.967276 
L 198.410591 82.26964 
L 205.293871 83.336474 
L 212.177151 82.432035 
L 219.06043 96.254634 
L 225.94371 110.696436 
L 232.826989 112.783449 
L 239.710269 111.443046 
L 246.593548 116.465962 
L 253.476828 134.399467 
L 260.360108 134.677458 
L 267.243387 127.799582 
L 274.126667 137.047068 
" style="fill:none;stroke:#055e9b;stroke-linecap:square;stroke-width:1.5;"/>
   </g>
   <g id="line2d_17">
    <path clip-path="url(#p35902faa5b)" d="M 60.745 134 
L 274.126667 134 
" style="fill:none;stroke:#000000;stroke-dasharray:5.55,2.4;stroke-dashoffset:0;stroke-width:1.5;"/>
   </g>
   <g id="line2d_18">
    <path clip-path="url(#p35902faa5b)" d="M 167.435833 232.88 
L 167.435833 35.12 
" style="fill:none;stroke:#000000;stroke-dasharray:5.55,2.4;stroke-dashoffset:0;stroke-width:1.5;"/>
   </g>
   <g id="patch_3">
    <path d="M 60.745 232.88 
L 60.745 35.12 
" style="fill:none;stroke:#000000;stroke-linecap:square;stroke-linejoin:miter;stroke-width:0.8;"/>
   </g>
   <g id="patch_4">
    <path d="M 274.126667 232.88 
L 274.126667 35.12 
" style="fill:none;stroke:#000000;stroke-linecap:square;stroke-linejoin:miter;stroke-width:0.8;"/>
   </g>
   <g id="patch_5">
    <path d="M 60.745 232.88 
L 274.126667 232.88 
" style="fill:none;stroke:#000000;stroke-linecap:square;stroke-linejoin:miter;stroke-width:0.8;"/>
   </g>
   <g id="patch_6">
    <path d="M 60.745 35.12 
L 274.126667 35.12 
" style="fill:none;stroke:#000000;stroke-linecap:square;stroke-linejoin:miter;stroke-width:0.8;"/>
   </g>
   <g id="text_15">
    <!-- expt4 (n=29) -->
    <defs>
     <path d="M 54.890625 54.6875 
L 35.109375 28.078125 
L 55.90625 0 
L 45.3125 0 
L 29.390625 21.484375 
L 13.484375 0 
L 2.875 0 
L 24.125 28.609375 
L 4.6875 54.6875 
L 15.28125 54.6875 
L 29.78125 35.203125 
L 44.28125 54.6875 
z
" id="DejaVuSans-120"/>
     <path d="M 18.109375 8.203125 
L 18.109375 -20.796875 
L 9.078125 -20.796875 
L 9.078125 54.6875 
L 18.109375 54.6875 
L 18.109375 46.390625 
Q 20.953125 51.265625 25.265625 53.625 
Q 29.59375 56 35.59375 56 
Q 45.5625 56 51.78125 48.09375 
Q 58.015625 40.1875 58.015625 27.296875 
Q 58.015625 14.40625 51.78125 6.484375 
Q 45.5625 -1.421875 35.59375 -1.421875 
Q 29.59375 -1.421875 25.265625 0.953125 
Q 20.953125 3.328125 18.109375 8.203125 
z
M 48.6875 27.296875 
Q 48.6875 37.203125 44.609375 42.84375 
Q 40.53125 48.484375 33.40625 48.484375 
Q 26.265625 48.484375 22.1875 42.84375 
Q 18.109375 37.203125 18.109375 27.296875 
Q 18.109375 17.390625 22.1875 11.75 
Q 26.265625 6.109375 33.40625 6.109375 
Q 40.53125 6.109375 44.609375 11.75 
Q 48.6875 17.390625 48.6875 27.296875 
z
" id="DejaVuSans-112"/>
     <path d="M 18.3125 70.21875 
L 18.3125 54.6875 
L 36.8125 54.6875 
L 36.8125 47.703125 
L 18.3125 47.703125 
L 18.3125 18.015625 
Q 18.3125 11.328125 20.140625 9.421875 
Q 21.96875 7.515625 27.59375 7.515625 
L 36.8125 7.515625 
L 36.8125 0 
L 27.59375 0 
Q 17.1875 0 13.234375 3.875 
Q 9.28125 7.765625 9.28125 18.015625 
L 9.28125 47.703125 
L 2.6875 47.703125 
L 2.6875 54.6875 
L 9.28125 54.6875 
L 9.28125 70.21875 
z
" id="DejaVuSans-116"/>
     <path d="M 37.796875 64.3125 
L 12.890625 25.390625 
L 37.796875 25.390625 
z
M 35.203125 72.90625 
L 47.609375 72.90625 
L 47.609375 25.390625 
L 58.015625 25.390625 
L 58.015625 17.1875 
L 47.609375 17.1875 
L 47.609375 0 
L 37.796875 0 
L 37.796875 17.1875 
L 4.890625 17.1875 
L 4.890625 26.703125 
z
" id="DejaVuSans-52"/>
     <path d="M 54.890625 33.015625 
L 54.890625 0 
L 45.90625 0 
L 45.90625 32.71875 
Q 45.90625 40.484375 42.875 44.328125 
Q 39.84375 48.1875 33.796875 48.1875 
Q 26.515625 48.1875 22.3125 43.546875 
Q 18.109375 38.921875 18.109375 30.90625 
L 18.109375 0 
L 9.078125 0 
L 9.078125 54.6875 
L 18.109375 54.6875 
L 18.109375 46.1875 
Q 21.34375 51.125 25.703125 53.5625 
Q 30.078125 56 35.796875 56 
Q 45.21875 56 50.046875 50.171875 
Q 54.890625 44.34375 54.890625 33.015625 
z
" id="DejaVuSans-110"/>
     <path d="M 10.59375 45.40625 
L 73.1875 45.40625 
L 73.1875 37.203125 
L 10.59375 37.203125 
z
M 10.59375 25.484375 
L 73.1875 25.484375 
L 73.1875 17.1875 
L 10.59375 17.1875 
z
" id="DejaVuSans-61"/>
    </defs>
    <g transform="translate(111.050833 29.12)scale(0.168 -0.168)">
     <use xlink:href="#DejaVuSans-101"/>
     <use x="61.507812" xlink:href="#DejaVuSans-120"/>
     <use x="120.6875" xlink:href="#DejaVuSans-112"/>
     <use x="184.164062" xlink:href="#DejaVuSans-116"/>
     <use x="223.373047" xlink:href="#DejaVuSans-52"/>
     <use x="286.996094" xlink:href="#DejaVuSans-32"/>
     <use x="318.783203" xlink:href="#DejaVuSans-40"/>
     <use x="357.796875" xlink:href="#DejaVuSans-110"/>
     <use x="421.175781" xlink:href="#DejaVuSans-61"/>
     <use x="504.964844" xlink:href="#DejaVuSans-50"/>
     <use x="568.587891" xlink:href="#DejaVuSans-57"/>
     <use x="632.210938" xlink:href="#DejaVuSans-41"/>
    </g>
   </g>
  </g>
  <g id="axes_2">
   <g id="patch_7">
    <path d="M 348.121667 232.88 
L 561.503333 232.88 
L 561.503333 35.12 
L 348.121667 35.12 
z
" style="fill:#ffffff;"/>
   </g>
   <g id="PolyCollection_3">
    <defs>
     <path d="M 348.121667 -159.33098 
L 348.121667 -135.23029 
L 355.004946 -140.765776 
L 361.888226 -142.731798 
L 368.771505 -142.966836 
L 375.654785 -153.323869 
L 382.538065 -155.552137 
L 389.421344 -150.275387 
L 396.304624 -145.361472 
L 403.187903 -152.461781 
L 410.071183 -151.181534 
L 416.954462 -150.352185 
L 423.837742 -149.507273 
L 430.721022 -153.31204 
L 437.604301 -156.845816 
L 444.487581 -146.604487 
L 451.37086 -149.654251 
L 458.25414 -149.056066 
L 465.137419 -158.799652 
L 472.020699 -157.146806 
L 478.903978 -159.578149 
L 485.787258 -162.192686 
L 492.670538 -161.237868 
L 499.553817 -154.611695 
L 506.437097 -151.258528 
L 513.320376 -144.350373 
L 520.203656 -144.799182 
L 527.086935 -134.144525 
L 533.970215 -129.629408 
L 540.853495 -139.584372 
L 547.736774 -138.2928 
L 554.620054 -137.477342 
L 561.503333 -129.435962 
L 561.503333 -147.671354 
L 561.503333 -147.671354 
L 554.620054 -152.948674 
L 547.736774 -155.524879 
L 540.853495 -154.923173 
L 533.970215 -147.408826 
L 527.086935 -152.172374 
L 520.203656 -160.348013 
L 513.320376 -160.624312 
L 506.437097 -167.841761 
L 499.553817 -172.172379 
L 492.670538 -177.182483 
L 485.787258 -178.855355 
L 478.903978 -176.711597 
L 472.020699 -171.066796 
L 465.137419 -174.397559 
L 458.25414 -165.563181 
L 451.37086 -167.511432 
L 444.487581 -162.525117 
L 437.604301 -170.622373 
L 430.721022 -167.652441 
L 423.837742 -163.688608 
L 416.954462 -170.008242 
L 410.071183 -168.172018 
L 403.187903 -170.268954 
L 396.304624 -166.726111 
L 389.421344 -170.38824 
L 382.538065 -175.097978 
L 375.654785 -175.460309 
L 368.771505 -166.738346 
L 361.888226 -170.827114 
L 355.004946 -165.902381 
L 348.121667 -159.33098 
z
" id="mb7ece1f76e" style="stroke:#b2df8a;stroke-opacity:0.6;"/>
    </defs>
    <g clip-path="url(#p7c6b5c7691)">
     <use style="fill:#b2df8a;fill-opacity:0.6;stroke:#b2df8a;stroke-opacity:0.6;" x="0" xlink:href="#mb7ece1f76e" y="288"/>
    </g>
   </g>
   <g id="PolyCollection_4">
    <defs>
     <path d="M 348.121667 -175.697227 
L 348.121667 -160.06881 
L 355.004946 -165.305407 
L 361.888226 -165.941702 
L 368.771505 -156.508973 
L 375.654785 -153.108386 
L 382.538065 -146.738601 
L 389.421344 -146.738601 
L 396.304624 -139.477812 
L 403.187903 -139.477812 
L 410.071183 -147.141379 
L 416.954462 -147.141379 
L 423.837742 -138.079682 
L 430.721022 -138.079682 
L 437.604301 -132.282861 
L 444.487581 -132.282861 
L 451.37086 -129.427749 
L 458.25414 -129.427749 
L 465.137419 -129.172844 
L 472.020699 -129.172844 
L 478.903978 -136.622745 
L 485.787258 -136.622745 
L 492.670538 -143.321056 
L 499.553817 -143.321056 
L 506.437097 -151.355508 
L 513.320376 -151.355508 
L 520.203656 -152.81612 
L 527.086935 -152.81612 
L 533.970215 -155.46894 
L 540.853495 -154.260864 
L 547.736774 -151.352312 
L 554.620054 -155.245875 
L 561.503333 -160.06881 
L 561.503333 -175.697227 
L 561.503333 -175.697227 
L 554.620054 -172.277385 
L 547.736774 -170.458879 
L 540.853495 -169.615483 
L 533.970215 -169.748344 
L 527.086935 -166.512728 
L 520.203656 -166.512728 
L 513.320376 -172.324829 
L 506.437097 -172.324829 
L 499.553817 -165.06104 
L 492.670538 -165.06104 
L 485.787258 -157.215183 
L 478.903978 -157.215183 
L 472.020699 -147.214858 
L 465.137419 -147.214858 
L 458.25414 -150.034972 
L 451.37086 -150.034972 
L 444.487581 -152.567421 
L 437.604301 -152.567421 
L 430.721022 -156.925408 
L 423.837742 -156.925408 
L 416.954462 -163.063879 
L 410.071183 -163.063879 
L 403.187903 -155.323133 
L 396.304624 -155.323133 
L 389.421344 -164.687215 
L 382.538065 -164.687215 
L 375.654785 -170.448509 
L 368.771505 -173.467067 
L 361.888226 -186.867536 
L 355.004946 -182.997426 
L 348.121667 -175.697227 
z
" id="m7591934fa9" style="stroke:#33a02c;stroke-opacity:0.6;"/>
    </defs>
    <g clip-path="url(#p7c6b5c7691)">
     <use style="fill:#33a02c;fill-opacity:0.6;stroke:#33a02c;stroke-opacity:0.6;" x="0" xlink:href="#m7591934fa9" y="288"/>
    </g>
   </g>
   <g id="matplotlib.axis_3">
    <g id="xtick_6">
     <g id="line2d_19">
      <g>
       <use style="stroke:#000000;stroke-width:0.8;" x="348.121667" xlink:href="#m13f503a306" y="232.88"/>
      </g>
     </g>
     <g id="text_16">
      <!-- −180 -->
      <g transform="translate(328.894635 250.517813)scale(0.14 -0.14)">
       <use xlink:href="#DejaVuSans-8722"/>
       <use x="83.789062" xlink:href="#DejaVuSans-49"/>
       <use x="147.412109" xlink:href="#DejaVuSans-56"/>
       <use x="211.035156" xlink:href="#DejaVuSans-48"/>
      </g>
     </g>
    </g>
    <g id="xtick_7">
     <g id="line2d_20">
      <g>
       <use style="stroke:#000000;stroke-width:0.8;" x="401.467083" xlink:href="#m13f503a306" y="232.88"/>
      </g>
     </g>
     <g id="text_17">
      <!-- −90 -->
      <g transform="translate(386.693802 250.517813)scale(0.14 -0.14)">
       <use xlink:href="#DejaVuSans-8722"/>
       <use x="83.789062" xlink:href="#DejaVuSans-57"/>
       <use x="147.412109" xlink:href="#DejaVuSans-48"/>
      </g>
     </g>
    </g>
    <g id="xtick_8">
     <g id="line2d_21">
      <g>
       <use style="stroke:#000000;stroke-width:0.8;" x="454.8125" xlink:href="#m13f503a306" y="232.88"/>
      </g>
     </g>
     <g id="text_18">
      <!-- 0 -->
      <g transform="translate(450.35875 250.517813)scale(0.14 -0.14)">
       <use xlink:href="#DejaVuSans-48"/>
      </g>
     </g>
    </g>
    <g id="xtick_9">
     <g id="line2d_22">
      <g>
       <use style="stroke:#000000;stroke-width:0.8;" x="508.157917" xlink:href="#m13f503a306" y="232.88"/>
      </g>
     </g>
     <g id="text_19">
      <!-- 90 -->
      <g transform="translate(499.250417 250.517813)scale(0.14 -0.14)">
       <use xlink:href="#DejaVuSans-57"/>
       <use x="63.623047" xlink:href="#DejaVuSans-48"/>
      </g>
     </g>
    </g>
    <g id="xtick_10">
     <g id="line2d_23">
      <g>
       <use style="stroke:#000000;stroke-width:0.8;" x="561.503333" xlink:href="#m13f503a306" y="232.88"/>
      </g>
     </g>
     <g id="text_20">
      <!-- 180 -->
      <g transform="translate(548.142083 250.517813)scale(0.14 -0.14)">
       <use xlink:href="#DejaVuSans-49"/>
       <use x="63.623047" xlink:href="#DejaVuSans-56"/>
       <use x="127.246094" xlink:href="#DejaVuSans-48"/>
      </g>
     </g>
    </g>
    <g id="text_21">
     <!-- $\Delta\theta$ -->
     <g transform="translate(445.7125 268.067188)scale(0.14 -0.14)">
      <use transform="translate(0 0.234375)" xlink:href="#DejaVuSans-916"/>
      <use transform="translate(68.408203 0.234375)" xlink:href="#DejaVuSans-Oblique-952"/>
     </g>
    </g>
   </g>
   <g id="matplotlib.axis_4"/>
   <g id="line2d_24">
    <path clip-path="url(#p7c6b5c7691)" d="M 348.121667 135.639555 
L 355.004946 129.014201 
L 361.888226 128.297558 
L 368.771505 128.70234 
L 375.654785 125.844204 
L 382.538065 127.483679 
L 389.421344 126.985586 
L 396.304624 134.356344 
L 403.187903 127.667558 
L 410.071183 127.912389 
L 416.954462 127.277815 
L 423.837742 132.015561 
L 430.721022 131.730438 
L 437.604301 124.236123 
L 444.487581 132.855144 
L 451.37086 131.711234 
L 458.25414 130.728367 
L 465.137419 119.946036 
L 472.020699 121.765849 
L 478.903978 119.7968 
L 485.787258 119.377064 
L 492.670538 118.642896 
L 499.553817 121.702497 
L 506.437097 130.814649 
L 513.320376 134.376417 
L 520.203656 133.688493 
L 527.086935 142.204651 
L 533.970215 148.215601 
L 540.853495 145.290601 
L 547.736774 142.675876 
L 554.620054 140.587892 
L 561.503333 144.275969 
" style="fill:none;stroke:#98c670;stroke-linecap:square;stroke-width:1.5;"/>
   </g>
   <g id="line2d_25">
    <path clip-path="url(#p7c6b5c7691)" d="M 348.121667 134 
L 561.503333 134 
" style="fill:none;stroke:#000000;stroke-dasharray:5.55,2.4;stroke-dashoffset:0;stroke-width:1.5;"/>
   </g>
   <g id="line2d_26">
    <path clip-path="url(#p7c6b5c7691)" d="M 454.8125 232.88 
L 454.8125 35.12 
" style="fill:none;stroke:#000000;stroke-dasharray:5.55,2.4;stroke-dashoffset:0;stroke-width:1.5;"/>
   </g>
   <g id="line2d_27">
    <path clip-path="url(#p7c6b5c7691)" d="M 348.121667 124.826913 
L 355.004946 119.68161 
L 361.888226 117.560679 
L 368.771505 128.889503 
L 375.654785 129.321827 
L 382.538065 135.414833 
L 389.421344 135.414833 
L 396.304624 145.743602 
L 403.187903 145.743602 
L 410.071183 136.198875 
L 416.954462 136.198875 
L 423.837742 140.304359 
L 430.721022 140.304359 
L 437.604301 143.212884 
L 444.487581 143.212884 
L 451.37086 146.52995 
L 458.25414 146.52995 
L 465.137419 142.944044 
L 472.020699 142.944044 
L 478.903978 134.721795 
L 485.787258 134.721795 
L 492.670538 134.434638 
L 499.553817 134.434638 
L 506.437097 131.332661 
L 513.320376 131.332661 
L 520.203656 136.530141 
L 527.086935 136.530141 
L 533.970215 132.544468 
L 540.853495 132.26383 
L 547.736774 132.703425 
L 554.620054 131.646144 
L 561.503333 124.826913 
" style="fill:none;stroke:#1a8612;stroke-linecap:square;stroke-width:1.5;"/>
   </g>
   <g id="line2d_28">
    <path clip-path="url(#p7c6b5c7691)" d="M 348.121667 134 
L 561.503333 134 
" style="fill:none;stroke:#000000;stroke-dasharray:5.55,2.4;stroke-dashoffset:0;stroke-width:1.5;"/>
   </g>
   <g id="line2d_29">
    <path clip-path="url(#p7c6b5c7691)" d="M 454.8125 232.88 
L 454.8125 35.12 
" style="fill:none;stroke:#000000;stroke-dasharray:5.55,2.4;stroke-dashoffset:0;stroke-width:1.5;"/>
   </g>
   <g id="patch_8">
    <path d="M 348.121667 232.88 
L 348.121667 35.12 
" style="fill:none;stroke:#000000;stroke-linecap:square;stroke-linejoin:miter;stroke-width:0.8;"/>
   </g>
   <g id="patch_9">
    <path d="M 561.503333 232.88 
L 561.503333 35.12 
" style="fill:none;stroke:#000000;stroke-linecap:square;stroke-linejoin:miter;stroke-width:0.8;"/>
   </g>
   <g id="patch_10">
    <path d="M 348.121667 232.88 
L 561.503333 232.88 
" style="fill:none;stroke:#000000;stroke-linecap:square;stroke-linejoin:miter;stroke-width:0.8;"/>
   </g>
   <g id="patch_11">
    <path d="M 348.121667 35.12 
L 561.503333 35.12 
" style="fill:none;stroke:#000000;stroke-linecap:square;stroke-linejoin:miter;stroke-width:0.8;"/>
   </g>
  </g>
  <g id="axes_3">
   <g id="patch_12">
    <path d="M 635.498333 232.88 
L 848.88 232.88 
L 848.88 35.12 
L 635.498333 35.12 
z
" style="fill:#ffffff;"/>
   </g>
   <g id="patch_13">
    <path clip-path="url(#p0d0bd605e3)" d="M 654.896667 134 
L 693.693333 134 
L 693.693333 128.029107 
L 654.896667 128.029107 
z
" style="fill:#a6cee3;"/>
   </g>
   <g id="patch_14">
    <path clip-path="url(#p0d0bd605e3)" d="M 751.888333 134 
L 790.685 134 
L 790.685 129.766672 
L 751.888333 129.766672 
z
" style="fill:#b2df8a;"/>
   </g>
   <g id="patch_15">
    <path clip-path="url(#p0d0bd605e3)" d="M 693.693333 134 
L 732.49 134 
L 732.49 79.405621 
L 693.693333 79.405621 
z
" style="fill:#1f78b4;"/>
   </g>
   <g id="patch_16">
    <path clip-path="url(#p0d0bd605e3)" d="M 790.685 134 
L 829.481667 134 
L 829.481667 133.478843 
L 790.685 133.478843 
z
" style="fill:#33a02c;"/>
   </g>
   <g id="matplotlib.axis_5">
    <g id="xtick_11">
     <g id="line2d_30">
      <g>
       <use style="stroke:#000000;stroke-width:0.8;" x="693.693333" xlink:href="#m13f503a306" y="232.88"/>
      </g>
     </g>
     <g id="text_22">
      <!-- Dot -->
      <defs>
       <path d="M 19.671875 64.796875 
L 19.671875 8.109375 
L 31.59375 8.109375 
Q 46.6875 8.109375 53.6875 14.9375 
Q 60.6875 21.78125 60.6875 36.53125 
Q 60.6875 51.171875 53.6875 57.984375 
Q 46.6875 64.796875 31.59375 64.796875 
z
M 9.8125 72.90625 
L 30.078125 72.90625 
Q 51.265625 72.90625 61.171875 64.09375 
Q 71.09375 55.28125 71.09375 36.53125 
Q 71.09375 17.671875 61.125 8.828125 
Q 51.171875 0 30.078125 0 
L 9.8125 0 
z
" id="DejaVuSans-68"/>
       <path d="M 30.609375 48.390625 
Q 23.390625 48.390625 19.1875 42.75 
Q 14.984375 37.109375 14.984375 27.296875 
Q 14.984375 17.484375 19.15625 11.84375 
Q 23.34375 6.203125 30.609375 6.203125 
Q 37.796875 6.203125 41.984375 11.859375 
Q 46.1875 17.53125 46.1875 27.296875 
Q 46.1875 37.015625 41.984375 42.703125 
Q 37.796875 48.390625 30.609375 48.390625 
z
M 30.609375 56 
Q 42.328125 56 49.015625 48.375 
Q 55.71875 40.765625 55.71875 27.296875 
Q 55.71875 13.875 49.015625 6.21875 
Q 42.328125 -1.421875 30.609375 -1.421875 
Q 18.84375 -1.421875 12.171875 6.21875 
Q 5.515625 13.875 5.515625 27.296875 
Q 5.515625 40.765625 12.171875 48.375 
Q 18.84375 56 30.609375 56 
z
" id="DejaVuSans-111"/>
      </defs>
      <g transform="translate(681.27599 250.517813)scale(0.14 -0.14)">
       <use xlink:href="#DejaVuSans-68"/>
       <use x="77.001953" xlink:href="#DejaVuSans-111"/>
       <use x="138.183594" xlink:href="#DejaVuSans-116"/>
      </g>
     </g>
    </g>
    <g id="xtick_12">
     <g id="line2d_31">
      <g>
       <use style="stroke:#000000;stroke-width:0.8;" x="790.685" xlink:href="#m13f503a306" y="232.88"/>
      </g>
     </g>
     <g id="text_23">
      <!-- Compass -->
      <defs>
       <path d="M 64.40625 67.28125 
L 64.40625 56.890625 
Q 59.421875 61.53125 53.78125 63.8125 
Q 48.140625 66.109375 41.796875 66.109375 
Q 29.296875 66.109375 22.65625 58.46875 
Q 16.015625 50.828125 16.015625 36.375 
Q 16.015625 21.96875 22.65625 14.328125 
Q 29.296875 6.6875 41.796875 6.6875 
Q 48.140625 6.6875 53.78125 8.984375 
Q 59.421875 11.28125 64.40625 15.921875 
L 64.40625 5.609375 
Q 59.234375 2.09375 53.4375 0.328125 
Q 47.65625 -1.421875 41.21875 -1.421875 
Q 24.65625 -1.421875 15.125 8.703125 
Q 5.609375 18.84375 5.609375 36.375 
Q 5.609375 53.953125 15.125 64.078125 
Q 24.65625 74.21875 41.21875 74.21875 
Q 47.75 74.21875 53.53125 72.484375 
Q 59.328125 70.75 64.40625 67.28125 
z
" id="DejaVuSans-67"/>
       <path d="M 52 44.1875 
Q 55.375 50.25 60.0625 53.125 
Q 64.75 56 71.09375 56 
Q 79.640625 56 84.28125 50.015625 
Q 88.921875 44.046875 88.921875 33.015625 
L 88.921875 0 
L 79.890625 0 
L 79.890625 32.71875 
Q 79.890625 40.578125 77.09375 44.375 
Q 74.3125 48.1875 68.609375 48.1875 
Q 61.625 48.1875 57.5625 43.546875 
Q 53.515625 38.921875 53.515625 30.90625 
L 53.515625 0 
L 44.484375 0 
L 44.484375 32.71875 
Q 44.484375 40.625 41.703125 44.40625 
Q 38.921875 48.1875 33.109375 48.1875 
Q 26.21875 48.1875 22.15625 43.53125 
Q 18.109375 38.875 18.109375 30.90625 
L 18.109375 0 
L 9.078125 0 
L 9.078125 54.6875 
L 18.109375 54.6875 
L 18.109375 46.1875 
Q 21.1875 51.21875 25.484375 53.609375 
Q 29.78125 56 35.6875 56 
Q 41.65625 56 45.828125 52.96875 
Q 50 49.953125 52 44.1875 
z
" id="DejaVuSans-109"/>
      </defs>
      <g transform="translate(758.66875 250.517813)scale(0.14 -0.14)">
       <use xlink:href="#DejaVuSans-67"/>
       <use x="69.824219" xlink:href="#DejaVuSans-111"/>
       <use x="131.005859" xlink:href="#DejaVuSans-109"/>
       <use x="228.417969" xlink:href="#DejaVuSans-112"/>
       <use x="291.894531" xlink:href="#DejaVuSans-97"/>
       <use x="353.173828" xlink:href="#DejaVuSans-115"/>
       <use x="405.273438" xlink:href="#DejaVuSans-115"/>
      </g>
     </g>
    </g>
    <g id="text_24">
     <!-- Current Stim Type -->
     <defs>
      <path d="M 8.5 21.578125 
L 8.5 54.6875 
L 17.484375 54.6875 
L 17.484375 21.921875 
Q 17.484375 14.15625 20.5 10.265625 
Q 23.53125 6.390625 29.59375 6.390625 
Q 36.859375 6.390625 41.078125 11.03125 
Q 45.3125 15.671875 45.3125 23.6875 
L 45.3125 54.6875 
L 54.296875 54.6875 
L 54.296875 0 
L 45.3125 0 
L 45.3125 8.40625 
Q 42.046875 3.421875 37.71875 1 
Q 33.40625 -1.421875 27.6875 -1.421875 
Q 18.265625 -1.421875 13.375 4.4375 
Q 8.5 10.296875 8.5 21.578125 
z
M 31.109375 56 
z
" id="DejaVuSans-117"/>
      <path d="M 41.109375 46.296875 
Q 39.59375 47.171875 37.8125 47.578125 
Q 36.03125 48 33.890625 48 
Q 26.265625 48 22.1875 43.046875 
Q 18.109375 38.09375 18.109375 28.8125 
L 18.109375 0 
L 9.078125 0 
L 9.078125 54.6875 
L 18.109375 54.6875 
L 18.109375 46.1875 
Q 20.953125 51.171875 25.484375 53.578125 
Q 30.03125 56 36.53125 56 
Q 37.453125 56 38.578125 55.875 
Q 39.703125 55.765625 41.0625 55.515625 
z
" id="DejaVuSans-114"/>
      <path d="M 53.515625 70.515625 
L 53.515625 60.890625 
Q 47.90625 63.578125 42.921875 64.890625 
Q 37.9375 66.21875 33.296875 66.21875 
Q 25.25 66.21875 20.875 63.09375 
Q 16.5 59.96875 16.5 54.203125 
Q 16.5 49.359375 19.40625 46.890625 
Q 22.3125 44.4375 30.421875 42.921875 
L 36.375 41.703125 
Q 47.40625 39.59375 52.65625 34.296875 
Q 57.90625 29 57.90625 20.125 
Q 57.90625 9.515625 50.796875 4.046875 
Q 43.703125 -1.421875 29.984375 -1.421875 
Q 24.8125 -1.421875 18.96875 -0.25 
Q 13.140625 0.921875 6.890625 3.21875 
L 6.890625 13.375 
Q 12.890625 10.015625 18.65625 8.296875 
Q 24.421875 6.59375 29.984375 6.59375 
Q 38.421875 6.59375 43.015625 9.90625 
Q 47.609375 13.234375 47.609375 19.390625 
Q 47.609375 24.75 44.3125 27.78125 
Q 41.015625 30.8125 33.5 32.328125 
L 27.484375 33.5 
Q 16.453125 35.6875 11.515625 40.375 
Q 6.59375 45.0625 6.59375 53.421875 
Q 6.59375 63.09375 13.40625 68.65625 
Q 20.21875 74.21875 32.171875 74.21875 
Q 37.3125 74.21875 42.625 73.28125 
Q 47.953125 72.359375 53.515625 70.515625 
z
" id="DejaVuSans-83"/>
      <path d="M -0.296875 72.90625 
L 61.375 72.90625 
L 61.375 64.59375 
L 35.5 64.59375 
L 35.5 0 
L 25.59375 0 
L 25.59375 64.59375 
L -0.296875 64.59375 
z
" id="DejaVuSans-84"/>
      <path d="M 32.171875 -5.078125 
Q 28.375 -14.84375 24.75 -17.8125 
Q 21.140625 -20.796875 15.09375 -20.796875 
L 7.90625 -20.796875 
L 7.90625 -13.28125 
L 13.1875 -13.28125 
Q 16.890625 -13.28125 18.9375 -11.515625 
Q 21 -9.765625 23.484375 -3.21875 
L 25.09375 0.875 
L 2.984375 54.6875 
L 12.5 54.6875 
L 29.59375 11.921875 
L 46.6875 54.6875 
L 56.203125 54.6875 
z
" id="DejaVuSans-121"/>
     </defs>
     <g transform="translate(678.071354 268.067188)scale(0.14 -0.14)">
      <use xlink:href="#DejaVuSans-67"/>
      <use x="69.824219" xlink:href="#DejaVuSans-117"/>
      <use x="133.203125" xlink:href="#DejaVuSans-114"/>
      <use x="174.300781" xlink:href="#DejaVuSans-114"/>
      <use x="215.382812" xlink:href="#DejaVuSans-101"/>
      <use x="276.90625" xlink:href="#DejaVuSans-110"/>
      <use x="340.285156" xlink:href="#DejaVuSans-116"/>
      <use x="379.494141" xlink:href="#DejaVuSans-32"/>
      <use x="411.28125" xlink:href="#DejaVuSans-83"/>
      <use x="474.757812" xlink:href="#DejaVuSans-116"/>
      <use x="513.966797" xlink:href="#DejaVuSans-105"/>
      <use x="541.75" xlink:href="#DejaVuSans-109"/>
      <use x="639.162109" xlink:href="#DejaVuSans-32"/>
      <use x="670.949219" xlink:href="#DejaVuSans-84"/>
      <use x="731.798828" xlink:href="#DejaVuSans-121"/>
      <use x="790.978516" xlink:href="#DejaVuSans-112"/>
      <use x="854.455078" xlink:href="#DejaVuSans-101"/>
     </g>
    </g>
   </g>
   <g id="matplotlib.axis_6">
    <g id="ytick_8">
     <g id="line2d_32">
      <g>
       <use style="stroke:#000000;stroke-width:0.8;" x="635.498333" xlink:href="#me80ddfc344" y="232.88"/>
      </g>
     </g>
     <g id="text_25">
      <!-- −3 -->
      <g transform="translate(607.859271 238.198906)scale(0.14 -0.14)">
       <use xlink:href="#DejaVuSans-8722"/>
       <use x="83.789062" xlink:href="#DejaVuSans-51"/>
      </g>
     </g>
    </g>
    <g id="ytick_9">
     <g id="line2d_33">
      <g>
       <use style="stroke:#000000;stroke-width:0.8;" x="635.498333" xlink:href="#me80ddfc344" y="199.92"/>
      </g>
     </g>
     <g id="text_26">
      <!-- −2 -->
      <g transform="translate(607.859271 205.238906)scale(0.14 -0.14)">
       <use xlink:href="#DejaVuSans-8722"/>
       <use x="83.789062" xlink:href="#DejaVuSans-50"/>
      </g>
     </g>
    </g>
    <g id="ytick_10">
     <g id="line2d_34">
      <g>
       <use style="stroke:#000000;stroke-width:0.8;" x="635.498333" xlink:href="#me80ddfc344" y="166.96"/>
      </g>
     </g>
     <g id="text_27">
      <!-- −1 -->
      <g transform="translate(607.859271 172.278906)scale(0.14 -0.14)">
       <use xlink:href="#DejaVuSans-8722"/>
       <use x="83.789062" xlink:href="#DejaVuSans-49"/>
      </g>
     </g>
    </g>
    <g id="ytick_11">
     <g id="line2d_35">
      <g>
       <use style="stroke:#000000;stroke-width:0.8;" x="635.498333" xlink:href="#me80ddfc344" y="134"/>
      </g>
     </g>
     <g id="text_28">
      <!-- 0 -->
      <g transform="translate(619.590833 139.318906)scale(0.14 -0.14)">
       <use xlink:href="#DejaVuSans-48"/>
      </g>
     </g>
    </g>
    <g id="ytick_12">
     <g id="line2d_36">
      <g>
       <use style="stroke:#000000;stroke-width:0.8;" x="635.498333" xlink:href="#me80ddfc344" y="101.04"/>
      </g>
     </g>
     <g id="text_29">
      <!-- 1 -->
      <g transform="translate(619.590833 106.358906)scale(0.14 -0.14)">
       <use xlink:href="#DejaVuSans-49"/>
      </g>
     </g>
    </g>
    <g id="ytick_13">
     <g id="line2d_37">
      <g>
       <use style="stroke:#000000;stroke-width:0.8;" x="635.498333" xlink:href="#me80ddfc344" y="68.08"/>
      </g>
     </g>
     <g id="text_30">
      <!-- 2 -->
      <g transform="translate(619.590833 73.398906)scale(0.14 -0.14)">
       <use xlink:href="#DejaVuSans-50"/>
      </g>
     </g>
    </g>
    <g id="ytick_14">
     <g id="line2d_38">
      <g>
       <use style="stroke:#000000;stroke-width:0.8;" x="635.498333" xlink:href="#me80ddfc344" y="35.12"/>
      </g>
     </g>
     <g id="text_31">
      <!-- 3 -->
      <g transform="translate(619.590833 40.438906)scale(0.14 -0.14)">
       <use xlink:href="#DejaVuSans-51"/>
      </g>
     </g>
    </g>
    <g id="text_32">
     <!-- DoVM Amp (deg) -->
     <defs>
      <path d="M 28.609375 0 
L 0.78125 72.90625 
L 11.078125 72.90625 
L 34.1875 11.53125 
L 57.328125 72.90625 
L 67.578125 72.90625 
L 39.796875 0 
z
" id="DejaVuSans-86"/>
      <path d="M 9.8125 72.90625 
L 24.515625 72.90625 
L 43.109375 23.296875 
L 61.8125 72.90625 
L 76.515625 72.90625 
L 76.515625 0 
L 66.890625 0 
L 66.890625 64.015625 
L 48.09375 14.015625 
L 38.1875 14.015625 
L 19.390625 64.015625 
L 19.390625 0 
L 9.8125 0 
z
" id="DejaVuSans-77"/>
      <path d="M 34.1875 63.1875 
L 20.796875 26.90625 
L 47.609375 26.90625 
z
M 28.609375 72.90625 
L 39.796875 72.90625 
L 67.578125 0 
L 57.328125 0 
L 50.6875 18.703125 
L 17.828125 18.703125 
L 11.1875 0 
L 0.78125 0 
z
" id="DejaVuSans-65"/>
     </defs>
     <g transform="translate(600.947708 193.658594)rotate(-90)scale(0.14 -0.14)">
      <use xlink:href="#DejaVuSans-68"/>
      <use x="77.001953" xlink:href="#DejaVuSans-111"/>
      <use x="138.183594" xlink:href="#DejaVuSans-86"/>
      <use x="206.591797" xlink:href="#DejaVuSans-77"/>
      <use x="292.871094" xlink:href="#DejaVuSans-32"/>
      <use x="324.658203" xlink:href="#DejaVuSans-65"/>
      <use x="393.066406" xlink:href="#DejaVuSans-109"/>
      <use x="490.478516" xlink:href="#DejaVuSans-112"/>
      <use x="553.955078" xlink:href="#DejaVuSans-32"/>
      <use x="585.742188" xlink:href="#DejaVuSans-40"/>
      <use x="624.755859" xlink:href="#DejaVuSans-100"/>
      <use x="688.232422" xlink:href="#DejaVuSans-101"/>
      <use x="749.755859" xlink:href="#DejaVuSans-103"/>
      <use x="813.232422" xlink:href="#DejaVuSans-41"/>
     </g>
    </g>
   </g>
   <g id="line2d_39">
    <path clip-path="url(#p0d0bd605e3)" d="M 674.295 145.526857 
L 674.295 108.951676 
" style="fill:none;stroke:#424242;stroke-linecap:square;stroke-width:2.7;"/>
   </g>
   <g id="line2d_40">
    <path clip-path="url(#p0d0bd605e3)" d="M 771.286667 138.388016 
L 771.286667 121.261663 
" style="fill:none;stroke:#424242;stroke-linecap:square;stroke-width:2.7;"/>
   </g>
   <g id="line2d_41">
    <path clip-path="url(#p0d0bd605e3)" d="M 713.091667 97.473398 
L 713.091667 62.862658 
" style="fill:none;stroke:#424242;stroke-linecap:square;stroke-width:2.7;"/>
   </g>
   <g id="line2d_42">
    <path clip-path="url(#p0d0bd605e3)" d="M 810.083333 142.502564 
L 810.083333 124.499392 
" style="fill:none;stroke:#424242;stroke-linecap:square;stroke-width:2.7;"/>
   </g>
   <g id="line2d_43">
    <defs>
     <path d="M 0 5 
C 1.326016 5 2.597899 4.473168 3.535534 3.535534 
C 4.473168 2.597899 5 1.326016 5 0 
C 5 -1.326016 4.473168 -2.597899 3.535534 -3.535534 
C 2.597899 -4.473168 1.326016 -5 0 -5 
C -1.326016 -5 -2.597899 -4.473168 -3.535534 -3.535534 
C -4.473168 -2.597899 -5 -1.326016 -5 0 
C -5 1.326016 -4.473168 2.597899 -3.535534 3.535534 
C -2.597899 4.473168 -1.326016 5 0 5 
z
" id="ma04efee162" style="stroke:#000000;"/>
    </defs>
    <g clip-path="url(#p0d0bd605e3)">
     <use style="fill-opacity:0;stroke:#000000;" x="674.295" xlink:href="#ma04efee162" y="118.966669"/>
     <use style="fill-opacity:0;stroke:#000000;" x="713.091667" xlink:href="#ma04efee162" y="81.136646"/>
     <use style="fill-opacity:0;stroke:#000000;" x="771.286667" xlink:href="#ma04efee162" y="131.316702"/>
     <use style="fill-opacity:0;stroke:#000000;" x="810.083333" xlink:href="#ma04efee162" y="131.43138"/>
    </g>
   </g>
   <g id="line2d_44">
    <path clip-path="url(#p0d0bd605e3)" d="M 645.1975 134 
L 839.180833 134 
" style="fill:none;stroke:#000000;stroke-linecap:square;stroke-width:1.5;"/>
   </g>
   <g id="patch_17">
    <path d="M 635.498333 232.88 
L 635.498333 35.12 
" style="fill:none;stroke:#000000;stroke-linecap:square;stroke-linejoin:miter;stroke-width:0.8;"/>
   </g>
   <g id="patch_18">
    <path d="M 848.88 232.88 
L 848.88 35.12 
" style="fill:none;stroke:#000000;stroke-linecap:square;stroke-linejoin:miter;stroke-width:0.8;"/>
   </g>
   <g id="patch_19">
    <path d="M 635.498333 232.88 
L 848.88 232.88 
" style="fill:none;stroke:#000000;stroke-linecap:square;stroke-linejoin:miter;stroke-width:0.8;"/>
   </g>
   <g id="patch_20">
    <path d="M 635.498333 35.12 
L 848.88 35.12 
" style="fill:none;stroke:#000000;stroke-linecap:square;stroke-linejoin:miter;stroke-width:0.8;"/>
   </g>
   <g id="legend_1">
    <g id="patch_21">
     <path d="M 833.48 53.32 
L 839.08 53.32 
Q 841.88 53.32 841.88 50.52 
L 841.88 44.92 
Q 841.88 42.12 839.08 42.12 
L 833.48 42.12 
Q 830.68 42.12 830.68 44.92 
L 830.68 50.52 
Q 830.68 53.32 833.48 53.32 
z
" style="fill:#ffffff;opacity:0.8;stroke:#cccccc;stroke-linejoin:miter;"/>
    </g>
   </g>
  </g>
 </g>
 <defs>
  <clipPath id="p35902faa5b">
   <rect height="197.76" width="213.381667" x="60.745" y="35.12"/>
  </clipPath>
  <clipPath id="p7c6b5c7691">
   <rect height="197.76" width="213.381667" x="348.121667" y="35.12"/>
  </clipPath>
  <clipPath id="p0d0bd605e3">
   <rect height="197.76" width="213.381667" x="635.498333" y="35.12"/>
  </clipPath>
 </defs>
</svg>
